<mxfile host="Electron" modified="2023-12-25T17:35:03.450Z" agent="Mozilla/5.0 (Windows NT 10.0; Win64; x64) AppleWebKit/537.36 (KHTML, like Gecko) draw.io/22.1.11 Chrome/114.0.5735.289 Electron/25.9.8 Safari/537.36" etag="iX9zaZ6FRi6MSTbMgeqf" version="22.1.11" type="device">
  <diagram id="C5RBs43oDa-KdzZeNtuy" name="Page-1">
    <mxGraphModel dx="538" dy="577" grid="1" gridSize="10" guides="1" tooltips="1" connect="1" arrows="1" fold="1" page="1" pageScale="1" pageWidth="827" pageHeight="1169" background="none" math="0" shadow="0">
      <root>
        <mxCell id="WIyWlLk6GJQsqaUBKTNV-0" />
        <mxCell id="WIyWlLk6GJQsqaUBKTNV-1" parent="WIyWlLk6GJQsqaUBKTNV-0" />
        <mxCell id="eguZcOIIzk-ZtP4Al-tq-109" style="edgeStyle=orthogonalEdgeStyle;rounded=0;orthogonalLoop=1;jettySize=auto;html=1;exitX=1;exitY=0.5;exitDx=0;exitDy=0;entryX=0;entryY=0.5;entryDx=0;entryDy=0;endArrow=none;endFill=0;" parent="WIyWlLk6GJQsqaUBKTNV-1" edge="1">
          <mxGeometry relative="1" as="geometry">
            <Array as="points">
              <mxPoint x="470" y="2265" />
              <mxPoint x="470" y="2750" />
              <mxPoint x="90" y="2750" />
              <mxPoint x="90" y="2195" />
            </Array>
            <mxPoint x="260" y="2195" as="targetPoint" />
          </mxGeometry>
        </mxCell>
        <mxCell id="eguZcOIIzk-ZtP4Al-tq-108" style="edgeStyle=orthogonalEdgeStyle;rounded=0;orthogonalLoop=1;jettySize=auto;html=1;exitX=1;exitY=0.5;exitDx=0;exitDy=0;entryX=0;entryY=0.5;entryDx=0;entryDy=0;endArrow=none;endFill=0;" parent="WIyWlLk6GJQsqaUBKTNV-1" edge="1">
          <mxGeometry relative="1" as="geometry">
            <mxPoint x="260" y="2265" as="targetPoint" />
            <Array as="points">
              <mxPoint x="420" y="2335" />
              <mxPoint x="420" y="2740" />
              <mxPoint x="170" y="2740" />
              <mxPoint x="170" y="2265" />
            </Array>
          </mxGeometry>
        </mxCell>
        <mxCell id="SrXDkedbZhOvb3IbywFJ-0" style="edgeStyle=orthogonalEdgeStyle;rounded=0;orthogonalLoop=1;jettySize=auto;html=1;exitX=1;exitY=0.5;exitDx=0;exitDy=0;endArrow=none;endFill=0;" parent="WIyWlLk6GJQsqaUBKTNV-1" edge="1">
          <mxGeometry relative="1" as="geometry">
            <Array as="points">
              <mxPoint x="1110" y="540" />
              <mxPoint x="1110" y="680" />
              <mxPoint x="1030" y="680" />
            </Array>
            <mxPoint x="1090" y="540" as="sourcePoint" />
          </mxGeometry>
        </mxCell>
        <mxCell id="SrXDkedbZhOvb3IbywFJ-1" style="edgeStyle=orthogonalEdgeStyle;rounded=0;orthogonalLoop=1;jettySize=auto;html=1;exitX=1;exitY=0.5;exitDx=0;exitDy=0;endArrow=none;endFill=0;" parent="WIyWlLk6GJQsqaUBKTNV-1" edge="1">
          <mxGeometry relative="1" as="geometry">
            <Array as="points">
              <mxPoint x="1250" y="1080" />
              <mxPoint x="1250" y="1450" />
              <mxPoint x="1015" y="1450" />
            </Array>
            <mxPoint x="1080" y="1080" as="sourcePoint" />
          </mxGeometry>
        </mxCell>
        <mxCell id="SrXDkedbZhOvb3IbywFJ-2" style="edgeStyle=orthogonalEdgeStyle;rounded=0;orthogonalLoop=1;jettySize=auto;html=1;exitX=1;exitY=0.5;exitDx=0;exitDy=0;entryX=0;entryY=0.5;entryDx=0;entryDy=0;endArrow=none;endFill=0;" parent="WIyWlLk6GJQsqaUBKTNV-1" edge="1">
          <mxGeometry relative="1" as="geometry">
            <Array as="points">
              <mxPoint x="1100" y="1250" />
              <mxPoint x="1100" y="1430" />
              <mxPoint x="840" y="1430" />
              <mxPoint x="840" y="1080" />
            </Array>
            <mxPoint x="960" y="1080" as="targetPoint" />
          </mxGeometry>
        </mxCell>
        <mxCell id="SrXDkedbZhOvb3IbywFJ-3" style="edgeStyle=orthogonalEdgeStyle;rounded=0;orthogonalLoop=1;jettySize=auto;html=1;exitX=0.5;exitY=1;exitDx=0;exitDy=0;entryX=0;entryY=0.5;entryDx=0;entryDy=0;endArrow=none;endFill=0;" parent="WIyWlLk6GJQsqaUBKTNV-1" edge="1">
          <mxGeometry relative="1" as="geometry">
            <Array as="points">
              <mxPoint x="1018" y="1430" />
              <mxPoint x="840" y="1430" />
              <mxPoint x="840" y="1080" />
            </Array>
            <mxPoint x="960" y="1080" as="targetPoint" />
          </mxGeometry>
        </mxCell>
        <mxCell id="SrXDkedbZhOvb3IbywFJ-4" style="edgeStyle=orthogonalEdgeStyle;rounded=0;orthogonalLoop=1;jettySize=auto;html=1;exitX=1;exitY=0.5;exitDx=0;exitDy=0;endArrow=none;endFill=0;" parent="WIyWlLk6GJQsqaUBKTNV-1" edge="1">
          <mxGeometry relative="1" as="geometry">
            <Array as="points">
              <mxPoint x="1170" y="1510" />
              <mxPoint x="1170" y="1750" />
              <mxPoint x="1008" y="1750" />
            </Array>
            <mxPoint x="1077.5" y="1510" as="sourcePoint" />
          </mxGeometry>
        </mxCell>
        <mxCell id="iqlw-UNt_izefoMJamtQ-0" style="edgeStyle=orthogonalEdgeStyle;rounded=0;orthogonalLoop=1;jettySize=auto;html=1;exitX=1;exitY=0.5;exitDx=0;exitDy=0;endArrow=none;endFill=0;" parent="WIyWlLk6GJQsqaUBKTNV-1" edge="1">
          <mxGeometry relative="1" as="geometry">
            <Array as="points">
              <mxPoint x="1290" y="550" />
              <mxPoint x="1290" y="1119.9999999999998" />
              <mxPoint x="1045" y="1119.9999999999998" />
            </Array>
            <mxPoint x="1110.62" y="550" as="sourcePoint" />
          </mxGeometry>
        </mxCell>
        <mxCell id="iqlw-UNt_izefoMJamtQ-13" style="edgeStyle=orthogonalEdgeStyle;rounded=0;orthogonalLoop=1;jettySize=auto;html=1;exitX=1;exitY=0.5;exitDx=0;exitDy=0;endArrow=none;endFill=0;" parent="WIyWlLk6GJQsqaUBKTNV-1" edge="1">
          <mxGeometry relative="1" as="geometry">
            <Array as="points">
              <mxPoint x="1150" y="500" />
              <mxPoint x="1150" y="1070.0000000000002" />
              <mxPoint x="905" y="1070.0000000000002" />
            </Array>
            <mxPoint x="970.6199999999999" y="500" as="sourcePoint" />
          </mxGeometry>
        </mxCell>
        <mxCell id="iqlw-UNt_izefoMJamtQ-48" style="edgeStyle=orthogonalEdgeStyle;rounded=0;orthogonalLoop=1;jettySize=auto;html=1;exitX=1;exitY=0.5;exitDx=0;exitDy=0;entryX=0;entryY=0.5;entryDx=0;entryDy=0;endArrow=none;endFill=0;" parent="WIyWlLk6GJQsqaUBKTNV-1" edge="1">
          <mxGeometry relative="1" as="geometry">
            <Array as="points">
              <mxPoint x="1380" y="2785" />
              <mxPoint x="1380" y="3270" />
              <mxPoint x="1000" y="3270" />
              <mxPoint x="1000" y="2715" />
            </Array>
            <mxPoint x="1170" y="2715" as="targetPoint" />
          </mxGeometry>
        </mxCell>
        <mxCell id="iqlw-UNt_izefoMJamtQ-88" style="edgeStyle=orthogonalEdgeStyle;rounded=0;orthogonalLoop=1;jettySize=auto;html=1;exitX=1;exitY=0.5;exitDx=0;exitDy=0;endArrow=none;endFill=0;" parent="WIyWlLk6GJQsqaUBKTNV-1" edge="1">
          <mxGeometry relative="1" as="geometry">
            <Array as="points">
              <mxPoint x="2020" y="1060" />
              <mxPoint x="2020" y="1200" />
              <mxPoint x="1940" y="1200" />
            </Array>
            <mxPoint x="2000" y="1060" as="sourcePoint" />
          </mxGeometry>
        </mxCell>
        <mxCell id="iqlw-UNt_izefoMJamtQ-89" style="edgeStyle=orthogonalEdgeStyle;rounded=0;orthogonalLoop=1;jettySize=auto;html=1;exitX=1;exitY=0.5;exitDx=0;exitDy=0;endArrow=none;endFill=0;" parent="WIyWlLk6GJQsqaUBKTNV-1" edge="1">
          <mxGeometry relative="1" as="geometry">
            <Array as="points">
              <mxPoint x="2160" y="1600" />
              <mxPoint x="2160" y="1970" />
              <mxPoint x="1925" y="1970" />
            </Array>
            <mxPoint x="1990" y="1600" as="sourcePoint" />
          </mxGeometry>
        </mxCell>
        <mxCell id="iqlw-UNt_izefoMJamtQ-90" style="edgeStyle=orthogonalEdgeStyle;rounded=0;orthogonalLoop=1;jettySize=auto;html=1;exitX=1;exitY=0.5;exitDx=0;exitDy=0;entryX=0;entryY=0.5;entryDx=0;entryDy=0;endArrow=none;endFill=0;" parent="WIyWlLk6GJQsqaUBKTNV-1" edge="1">
          <mxGeometry relative="1" as="geometry">
            <Array as="points">
              <mxPoint x="2010" y="1770" />
              <mxPoint x="2010" y="1950" />
              <mxPoint x="1750" y="1950" />
              <mxPoint x="1750" y="1600" />
            </Array>
            <mxPoint x="1870" y="1600" as="targetPoint" />
          </mxGeometry>
        </mxCell>
        <mxCell id="iqlw-UNt_izefoMJamtQ-91" style="edgeStyle=orthogonalEdgeStyle;rounded=0;orthogonalLoop=1;jettySize=auto;html=1;exitX=0.5;exitY=1;exitDx=0;exitDy=0;entryX=0;entryY=0.5;entryDx=0;entryDy=0;endArrow=none;endFill=0;" parent="WIyWlLk6GJQsqaUBKTNV-1" edge="1">
          <mxGeometry relative="1" as="geometry">
            <Array as="points">
              <mxPoint x="1928" y="1950" />
              <mxPoint x="1750" y="1950" />
              <mxPoint x="1750" y="1600" />
            </Array>
            <mxPoint x="1870" y="1600" as="targetPoint" />
          </mxGeometry>
        </mxCell>
        <mxCell id="iqlw-UNt_izefoMJamtQ-92" style="edgeStyle=orthogonalEdgeStyle;rounded=0;orthogonalLoop=1;jettySize=auto;html=1;exitX=1;exitY=0.5;exitDx=0;exitDy=0;endArrow=none;endFill=0;" parent="WIyWlLk6GJQsqaUBKTNV-1" edge="1">
          <mxGeometry relative="1" as="geometry">
            <Array as="points">
              <mxPoint x="2080" y="2030" />
              <mxPoint x="2080" y="2270" />
              <mxPoint x="1918" y="2270" />
            </Array>
            <mxPoint x="1987.5" y="2030" as="sourcePoint" />
          </mxGeometry>
        </mxCell>
        <mxCell id="l8IGCBfINwLVTN0Zbq0X-0" style="edgeStyle=orthogonalEdgeStyle;rounded=0;orthogonalLoop=1;jettySize=auto;html=1;exitX=1;exitY=0.5;exitDx=0;exitDy=0;endArrow=none;endFill=0;" parent="WIyWlLk6GJQsqaUBKTNV-1" edge="1">
          <mxGeometry relative="1" as="geometry">
            <Array as="points">
              <mxPoint x="1020" y="2860" />
              <mxPoint x="1020" y="3430" />
              <mxPoint x="775" y="3430" />
            </Array>
            <mxPoint x="840.6199999999999" y="2860" as="sourcePoint" />
          </mxGeometry>
        </mxCell>
        <mxCell id="l8IGCBfINwLVTN0Zbq0X-13" style="edgeStyle=orthogonalEdgeStyle;rounded=0;orthogonalLoop=1;jettySize=auto;html=1;exitX=1;exitY=0.5;exitDx=0;exitDy=0;endArrow=none;endFill=0;" parent="WIyWlLk6GJQsqaUBKTNV-1" edge="1">
          <mxGeometry relative="1" as="geometry">
            <Array as="points">
              <mxPoint x="1093" y="3530" />
              <mxPoint x="1093" y="4100" />
              <mxPoint x="848" y="4100" />
            </Array>
            <mxPoint x="913.6199999999999" y="3530" as="sourcePoint" />
          </mxGeometry>
        </mxCell>
        <mxCell id="l8IGCBfINwLVTN0Zbq0X-14" style="edgeStyle=orthogonalEdgeStyle;rounded=0;orthogonalLoop=1;jettySize=auto;html=1;exitX=1;exitY=0.5;exitDx=0;exitDy=0;endArrow=none;endFill=0;" parent="WIyWlLk6GJQsqaUBKTNV-1" edge="1">
          <mxGeometry relative="1" as="geometry">
            <Array as="points">
              <mxPoint x="920" y="3100" />
              <mxPoint x="920" y="3240" />
              <mxPoint x="840" y="3240" />
            </Array>
            <mxPoint x="900" y="3100" as="sourcePoint" />
          </mxGeometry>
        </mxCell>
        <mxCell id="l8IGCBfINwLVTN0Zbq0X-15" style="edgeStyle=orthogonalEdgeStyle;rounded=0;orthogonalLoop=1;jettySize=auto;html=1;exitX=1;exitY=0.5;exitDx=0;exitDy=0;endArrow=none;endFill=0;" parent="WIyWlLk6GJQsqaUBKTNV-1" edge="1">
          <mxGeometry relative="1" as="geometry">
            <Array as="points">
              <mxPoint x="1060" y="3640" />
              <mxPoint x="1060" y="4010" />
              <mxPoint x="825" y="4010" />
            </Array>
            <mxPoint x="890" y="3640" as="sourcePoint" />
          </mxGeometry>
        </mxCell>
        <mxCell id="l8IGCBfINwLVTN0Zbq0X-16" style="edgeStyle=orthogonalEdgeStyle;rounded=0;orthogonalLoop=1;jettySize=auto;html=1;exitX=1;exitY=0.5;exitDx=0;exitDy=0;entryX=0;entryY=0.5;entryDx=0;entryDy=0;endArrow=none;endFill=0;" parent="WIyWlLk6GJQsqaUBKTNV-1" edge="1">
          <mxGeometry relative="1" as="geometry">
            <Array as="points">
              <mxPoint x="910" y="3810" />
              <mxPoint x="910" y="3990" />
              <mxPoint x="650" y="3990" />
              <mxPoint x="650" y="3640" />
            </Array>
            <mxPoint x="770" y="3640" as="targetPoint" />
          </mxGeometry>
        </mxCell>
        <mxCell id="l8IGCBfINwLVTN0Zbq0X-17" style="edgeStyle=orthogonalEdgeStyle;rounded=0;orthogonalLoop=1;jettySize=auto;html=1;exitX=0.5;exitY=1;exitDx=0;exitDy=0;entryX=0;entryY=0.5;entryDx=0;entryDy=0;endArrow=none;endFill=0;" parent="WIyWlLk6GJQsqaUBKTNV-1" edge="1">
          <mxGeometry relative="1" as="geometry">
            <Array as="points">
              <mxPoint x="828" y="3990" />
              <mxPoint x="650" y="3990" />
              <mxPoint x="650" y="3640" />
            </Array>
            <mxPoint x="770" y="3640" as="targetPoint" />
          </mxGeometry>
        </mxCell>
        <mxCell id="l8IGCBfINwLVTN0Zbq0X-18" style="edgeStyle=orthogonalEdgeStyle;rounded=0;orthogonalLoop=1;jettySize=auto;html=1;exitX=1;exitY=0.5;exitDx=0;exitDy=0;endArrow=none;endFill=0;" parent="WIyWlLk6GJQsqaUBKTNV-1" edge="1">
          <mxGeometry relative="1" as="geometry">
            <Array as="points">
              <mxPoint x="980" y="4070" />
              <mxPoint x="980" y="4310" />
              <mxPoint x="818" y="4310" />
            </Array>
            <mxPoint x="887.5" y="4070" as="sourcePoint" />
          </mxGeometry>
        </mxCell>
        <mxCell id="l8IGCBfINwLVTN0Zbq0X-35" style="edgeStyle=orthogonalEdgeStyle;rounded=0;orthogonalLoop=1;jettySize=auto;html=1;exitX=1;exitY=0.5;exitDx=0;exitDy=0;endArrow=none;endFill=0;" parent="WIyWlLk6GJQsqaUBKTNV-1" edge="1">
          <mxGeometry relative="1" as="geometry">
            <Array as="points">
              <mxPoint x="1003" y="5290" />
              <mxPoint x="1003" y="5860" />
              <mxPoint x="758" y="5860" />
            </Array>
            <mxPoint x="823.6199999999999" y="5290" as="sourcePoint" />
          </mxGeometry>
        </mxCell>
        <mxCell id="l8IGCBfINwLVTN0Zbq0X-36" style="edgeStyle=orthogonalEdgeStyle;rounded=0;orthogonalLoop=1;jettySize=auto;html=1;exitX=1;exitY=0.5;exitDx=0;exitDy=0;endArrow=none;endFill=0;" parent="WIyWlLk6GJQsqaUBKTNV-1" edge="1">
          <mxGeometry relative="1" as="geometry">
            <Array as="points">
              <mxPoint x="830" y="4860" />
              <mxPoint x="830" y="5000" />
              <mxPoint x="750" y="5000" />
            </Array>
            <mxPoint x="810" y="4860" as="sourcePoint" />
          </mxGeometry>
        </mxCell>
        <mxCell id="l8IGCBfINwLVTN0Zbq0X-37" style="edgeStyle=orthogonalEdgeStyle;rounded=0;orthogonalLoop=1;jettySize=auto;html=1;exitX=1;exitY=0.5;exitDx=0;exitDy=0;endArrow=none;endFill=0;" parent="WIyWlLk6GJQsqaUBKTNV-1" edge="1">
          <mxGeometry relative="1" as="geometry">
            <Array as="points">
              <mxPoint x="970" y="5400" />
              <mxPoint x="970" y="5770" />
              <mxPoint x="735" y="5770" />
            </Array>
            <mxPoint x="800" y="5400" as="sourcePoint" />
          </mxGeometry>
        </mxCell>
        <mxCell id="l8IGCBfINwLVTN0Zbq0X-38" style="edgeStyle=orthogonalEdgeStyle;rounded=0;orthogonalLoop=1;jettySize=auto;html=1;exitX=1;exitY=0.5;exitDx=0;exitDy=0;entryX=0;entryY=0.5;entryDx=0;entryDy=0;endArrow=none;endFill=0;" parent="WIyWlLk6GJQsqaUBKTNV-1" edge="1">
          <mxGeometry relative="1" as="geometry">
            <Array as="points">
              <mxPoint x="820" y="5570" />
              <mxPoint x="820" y="5750" />
              <mxPoint x="560" y="5750" />
              <mxPoint x="560" y="5400" />
            </Array>
            <mxPoint x="680" y="5400" as="targetPoint" />
          </mxGeometry>
        </mxCell>
        <mxCell id="l8IGCBfINwLVTN0Zbq0X-39" style="edgeStyle=orthogonalEdgeStyle;rounded=0;orthogonalLoop=1;jettySize=auto;html=1;exitX=0.5;exitY=1;exitDx=0;exitDy=0;entryX=0;entryY=0.5;entryDx=0;entryDy=0;endArrow=none;endFill=0;" parent="WIyWlLk6GJQsqaUBKTNV-1" edge="1">
          <mxGeometry relative="1" as="geometry">
            <Array as="points">
              <mxPoint x="738" y="5750" />
              <mxPoint x="560" y="5750" />
              <mxPoint x="560" y="5400" />
            </Array>
            <mxPoint x="680" y="5400" as="targetPoint" />
          </mxGeometry>
        </mxCell>
        <mxCell id="l8IGCBfINwLVTN0Zbq0X-40" style="edgeStyle=orthogonalEdgeStyle;rounded=0;orthogonalLoop=1;jettySize=auto;html=1;exitX=1;exitY=0.5;exitDx=0;exitDy=0;endArrow=none;endFill=0;" parent="WIyWlLk6GJQsqaUBKTNV-1" edge="1">
          <mxGeometry relative="1" as="geometry">
            <Array as="points">
              <mxPoint x="890" y="5830" />
              <mxPoint x="890" y="6070" />
              <mxPoint x="728" y="6070" />
            </Array>
            <mxPoint x="797.5" y="5830" as="sourcePoint" />
          </mxGeometry>
        </mxCell>
        <mxCell id="l8IGCBfINwLVTN0Zbq0X-50" style="edgeStyle=orthogonalEdgeStyle;rounded=0;orthogonalLoop=1;jettySize=auto;html=1;exitX=1;exitY=0.5;exitDx=0;exitDy=0;endArrow=none;endFill=0;" parent="WIyWlLk6GJQsqaUBKTNV-1" edge="1">
          <mxGeometry relative="1" as="geometry">
            <Array as="points">
              <mxPoint x="833" y="7140" />
              <mxPoint x="833" y="7710" />
              <mxPoint x="588" y="7710" />
            </Array>
            <mxPoint x="653.6199999999999" y="7140" as="sourcePoint" />
          </mxGeometry>
        </mxCell>
        <mxCell id="l8IGCBfINwLVTN0Zbq0X-51" style="edgeStyle=orthogonalEdgeStyle;rounded=0;orthogonalLoop=1;jettySize=auto;html=1;exitX=1;exitY=0.5;exitDx=0;exitDy=0;endArrow=none;endFill=0;" parent="WIyWlLk6GJQsqaUBKTNV-1" edge="1">
          <mxGeometry relative="1" as="geometry">
            <Array as="points">
              <mxPoint x="660" y="6710" />
              <mxPoint x="660" y="6850" />
              <mxPoint x="580" y="6850" />
            </Array>
            <mxPoint x="640" y="6710" as="sourcePoint" />
          </mxGeometry>
        </mxCell>
        <mxCell id="l8IGCBfINwLVTN0Zbq0X-52" style="edgeStyle=orthogonalEdgeStyle;rounded=0;orthogonalLoop=1;jettySize=auto;html=1;exitX=1;exitY=0.5;exitDx=0;exitDy=0;endArrow=none;endFill=0;" parent="WIyWlLk6GJQsqaUBKTNV-1" edge="1">
          <mxGeometry relative="1" as="geometry">
            <Array as="points">
              <mxPoint x="800" y="7250" />
              <mxPoint x="800" y="7620" />
              <mxPoint x="565" y="7620" />
            </Array>
            <mxPoint x="630" y="7250" as="sourcePoint" />
          </mxGeometry>
        </mxCell>
        <mxCell id="l8IGCBfINwLVTN0Zbq0X-53" style="edgeStyle=orthogonalEdgeStyle;rounded=0;orthogonalLoop=1;jettySize=auto;html=1;exitX=1;exitY=0.5;exitDx=0;exitDy=0;entryX=0;entryY=0.5;entryDx=0;entryDy=0;endArrow=none;endFill=0;" parent="WIyWlLk6GJQsqaUBKTNV-1" edge="1">
          <mxGeometry relative="1" as="geometry">
            <Array as="points">
              <mxPoint x="650" y="7420" />
              <mxPoint x="650" y="7600" />
              <mxPoint x="390" y="7600" />
              <mxPoint x="390" y="7250" />
            </Array>
            <mxPoint x="510" y="7250" as="targetPoint" />
          </mxGeometry>
        </mxCell>
        <mxCell id="l8IGCBfINwLVTN0Zbq0X-54" style="edgeStyle=orthogonalEdgeStyle;rounded=0;orthogonalLoop=1;jettySize=auto;html=1;exitX=0.5;exitY=1;exitDx=0;exitDy=0;entryX=0;entryY=0.5;entryDx=0;entryDy=0;endArrow=none;endFill=0;" parent="WIyWlLk6GJQsqaUBKTNV-1" edge="1">
          <mxGeometry relative="1" as="geometry">
            <Array as="points">
              <mxPoint x="568" y="7600" />
              <mxPoint x="390" y="7600" />
              <mxPoint x="390" y="7250" />
            </Array>
            <mxPoint x="510" y="7250" as="targetPoint" />
          </mxGeometry>
        </mxCell>
        <mxCell id="l8IGCBfINwLVTN0Zbq0X-55" style="edgeStyle=orthogonalEdgeStyle;rounded=0;orthogonalLoop=1;jettySize=auto;html=1;exitX=1;exitY=0.5;exitDx=0;exitDy=0;endArrow=none;endFill=0;" parent="WIyWlLk6GJQsqaUBKTNV-1" edge="1">
          <mxGeometry relative="1" as="geometry">
            <Array as="points">
              <mxPoint x="720" y="7680" />
              <mxPoint x="720" y="7920" />
              <mxPoint x="558" y="7920" />
            </Array>
            <mxPoint x="627.5" y="7680" as="sourcePoint" />
          </mxGeometry>
        </mxCell>
        <mxCell id="l8IGCBfINwLVTN0Zbq0X-72" style="edgeStyle=orthogonalEdgeStyle;rounded=0;orthogonalLoop=1;jettySize=auto;html=1;exitX=1;exitY=0.5;exitDx=0;exitDy=0;endArrow=none;endFill=0;" parent="WIyWlLk6GJQsqaUBKTNV-1" edge="1">
          <mxGeometry relative="1" as="geometry">
            <Array as="points">
              <mxPoint x="1290.02" y="7190" />
              <mxPoint x="1290.02" y="7760" />
              <mxPoint x="1045.02" y="7760" />
            </Array>
            <mxPoint x="1110.6399999999999" y="7190" as="sourcePoint" />
          </mxGeometry>
        </mxCell>
        <mxCell id="l8IGCBfINwLVTN0Zbq0X-73" style="edgeStyle=orthogonalEdgeStyle;rounded=0;orthogonalLoop=1;jettySize=auto;html=1;exitX=1;exitY=0.5;exitDx=0;exitDy=0;endArrow=none;endFill=0;" parent="WIyWlLk6GJQsqaUBKTNV-1" edge="1">
          <mxGeometry relative="1" as="geometry">
            <Array as="points">
              <mxPoint x="1117.02" y="6760" />
              <mxPoint x="1117.02" y="6900" />
              <mxPoint x="1037.02" y="6900" />
            </Array>
            <mxPoint x="1097.02" y="6760" as="sourcePoint" />
          </mxGeometry>
        </mxCell>
        <mxCell id="l8IGCBfINwLVTN0Zbq0X-74" style="edgeStyle=orthogonalEdgeStyle;rounded=0;orthogonalLoop=1;jettySize=auto;html=1;exitX=1;exitY=0.5;exitDx=0;exitDy=0;endArrow=none;endFill=0;" parent="WIyWlLk6GJQsqaUBKTNV-1" edge="1">
          <mxGeometry relative="1" as="geometry">
            <Array as="points">
              <mxPoint x="1257.02" y="7300" />
              <mxPoint x="1257.02" y="7670" />
              <mxPoint x="1022.02" y="7670" />
            </Array>
            <mxPoint x="1087.02" y="7300" as="sourcePoint" />
          </mxGeometry>
        </mxCell>
        <mxCell id="l8IGCBfINwLVTN0Zbq0X-75" style="edgeStyle=orthogonalEdgeStyle;rounded=0;orthogonalLoop=1;jettySize=auto;html=1;exitX=1;exitY=0.5;exitDx=0;exitDy=0;entryX=0;entryY=0.5;entryDx=0;entryDy=0;endArrow=none;endFill=0;" parent="WIyWlLk6GJQsqaUBKTNV-1" edge="1">
          <mxGeometry relative="1" as="geometry">
            <Array as="points">
              <mxPoint x="1107.02" y="7470" />
              <mxPoint x="1107.02" y="7650" />
              <mxPoint x="847.02" y="7650" />
              <mxPoint x="847.02" y="7300" />
            </Array>
            <mxPoint x="967.02" y="7300" as="targetPoint" />
          </mxGeometry>
        </mxCell>
        <mxCell id="l8IGCBfINwLVTN0Zbq0X-76" style="edgeStyle=orthogonalEdgeStyle;rounded=0;orthogonalLoop=1;jettySize=auto;html=1;exitX=0.5;exitY=1;exitDx=0;exitDy=0;entryX=0;entryY=0.5;entryDx=0;entryDy=0;endArrow=none;endFill=0;" parent="WIyWlLk6GJQsqaUBKTNV-1" edge="1">
          <mxGeometry relative="1" as="geometry">
            <Array as="points">
              <mxPoint x="1025.02" y="7650" />
              <mxPoint x="847.02" y="7650" />
              <mxPoint x="847.02" y="7300" />
            </Array>
            <mxPoint x="967.02" y="7300" as="targetPoint" />
          </mxGeometry>
        </mxCell>
        <mxCell id="l8IGCBfINwLVTN0Zbq0X-77" style="edgeStyle=orthogonalEdgeStyle;rounded=0;orthogonalLoop=1;jettySize=auto;html=1;exitX=1;exitY=0.5;exitDx=0;exitDy=0;endArrow=none;endFill=0;" parent="WIyWlLk6GJQsqaUBKTNV-1" edge="1">
          <mxGeometry relative="1" as="geometry">
            <Array as="points">
              <mxPoint x="1177.02" y="7730" />
              <mxPoint x="1177.02" y="7970" />
              <mxPoint x="1015.02" y="7970" />
            </Array>
            <mxPoint x="1084.52" y="7730" as="sourcePoint" />
          </mxGeometry>
        </mxCell>
        <mxCell id="l8IGCBfINwLVTN0Zbq0X-147" style="edgeStyle=orthogonalEdgeStyle;rounded=0;orthogonalLoop=1;jettySize=auto;html=1;exitX=0.5;exitY=1;exitDx=0;exitDy=0;entryX=0;entryY=0.5;entryDx=0;entryDy=0;" parent="WIyWlLk6GJQsqaUBKTNV-1" edge="1">
          <mxGeometry relative="1" as="geometry">
            <Array as="points">
              <mxPoint x="135" y="6380" />
              <mxPoint x="50" y="6380" />
              <mxPoint x="50" y="6250" />
            </Array>
            <mxPoint x="70" y="6250" as="targetPoint" />
          </mxGeometry>
        </mxCell>
        <mxCell id="l8IGCBfINwLVTN0Zbq0X-151" style="edgeStyle=orthogonalEdgeStyle;rounded=0;orthogonalLoop=1;jettySize=auto;html=1;exitX=1;exitY=0.5;exitDx=0;exitDy=0;endArrow=none;endFill=0;" parent="WIyWlLk6GJQsqaUBKTNV-1" edge="1">
          <mxGeometry relative="1" as="geometry">
            <Array as="points">
              <mxPoint x="1850" y="6090" />
              <mxPoint x="1850" y="6230" />
              <mxPoint x="1770" y="6230" />
            </Array>
            <mxPoint x="1830" y="6090" as="sourcePoint" />
          </mxGeometry>
        </mxCell>
        <mxCell id="l8IGCBfINwLVTN0Zbq0X-152" style="edgeStyle=orthogonalEdgeStyle;rounded=0;orthogonalLoop=1;jettySize=auto;html=1;exitX=1;exitY=0.5;exitDx=0;exitDy=0;endArrow=none;endFill=0;" parent="WIyWlLk6GJQsqaUBKTNV-1" edge="1">
          <mxGeometry relative="1" as="geometry">
            <Array as="points">
              <mxPoint x="1990" y="6630" />
              <mxPoint x="1990" y="7000" />
              <mxPoint x="1755" y="7000" />
            </Array>
            <mxPoint x="1820" y="6630" as="sourcePoint" />
          </mxGeometry>
        </mxCell>
        <mxCell id="l8IGCBfINwLVTN0Zbq0X-153" style="edgeStyle=orthogonalEdgeStyle;rounded=0;orthogonalLoop=1;jettySize=auto;html=1;exitX=1;exitY=0.5;exitDx=0;exitDy=0;entryX=0;entryY=0.5;entryDx=0;entryDy=0;endArrow=none;endFill=0;" parent="WIyWlLk6GJQsqaUBKTNV-1" edge="1">
          <mxGeometry relative="1" as="geometry">
            <Array as="points">
              <mxPoint x="1840" y="6800" />
              <mxPoint x="1840" y="6980" />
              <mxPoint x="1580" y="6980" />
              <mxPoint x="1580" y="6630" />
            </Array>
            <mxPoint x="1700" y="6630" as="targetPoint" />
          </mxGeometry>
        </mxCell>
        <mxCell id="l8IGCBfINwLVTN0Zbq0X-154" style="edgeStyle=orthogonalEdgeStyle;rounded=0;orthogonalLoop=1;jettySize=auto;html=1;exitX=0.5;exitY=1;exitDx=0;exitDy=0;entryX=0;entryY=0.5;entryDx=0;entryDy=0;endArrow=none;endFill=0;" parent="WIyWlLk6GJQsqaUBKTNV-1" edge="1">
          <mxGeometry relative="1" as="geometry">
            <Array as="points">
              <mxPoint x="1758" y="6980" />
              <mxPoint x="1580" y="6980" />
              <mxPoint x="1580" y="6630" />
            </Array>
            <mxPoint x="1700" y="6630" as="targetPoint" />
          </mxGeometry>
        </mxCell>
        <mxCell id="l8IGCBfINwLVTN0Zbq0X-155" style="edgeStyle=orthogonalEdgeStyle;rounded=0;orthogonalLoop=1;jettySize=auto;html=1;exitX=1;exitY=0.5;exitDx=0;exitDy=0;endArrow=none;endFill=0;" parent="WIyWlLk6GJQsqaUBKTNV-1" edge="1">
          <mxGeometry relative="1" as="geometry">
            <Array as="points">
              <mxPoint x="1910" y="7060" />
              <mxPoint x="1910" y="7300" />
              <mxPoint x="1748" y="7300" />
            </Array>
            <mxPoint x="1817.5" y="7060" as="sourcePoint" />
          </mxGeometry>
        </mxCell>
        <mxCell id="l8IGCBfINwLVTN0Zbq0X-239" style="edgeStyle=orthogonalEdgeStyle;rounded=0;orthogonalLoop=1;jettySize=auto;html=1;exitX=1;exitY=0.5;exitDx=0;exitDy=0;endArrow=none;endFill=0;" parent="WIyWlLk6GJQsqaUBKTNV-1" edge="1">
          <mxGeometry relative="1" as="geometry">
            <Array as="points">
              <mxPoint x="870.02" y="6584" />
              <mxPoint x="870.02" y="6724" />
              <mxPoint x="790.02" y="6724" />
            </Array>
            <mxPoint x="850.02" y="6584" as="sourcePoint" />
          </mxGeometry>
        </mxCell>
        <mxCell id="l8IGCBfINwLVTN0Zbq0X-240" style="edgeStyle=orthogonalEdgeStyle;rounded=0;orthogonalLoop=1;jettySize=auto;html=1;exitX=1;exitY=0.5;exitDx=0;exitDy=0;endArrow=none;endFill=0;" parent="WIyWlLk6GJQsqaUBKTNV-1" edge="1">
          <mxGeometry relative="1" as="geometry">
            <Array as="points">
              <mxPoint x="1010.02" y="7124" />
              <mxPoint x="1010.02" y="7494" />
              <mxPoint x="775.02" y="7494" />
            </Array>
            <mxPoint x="840.02" y="7124" as="sourcePoint" />
          </mxGeometry>
        </mxCell>
        <mxCell id="l8IGCBfINwLVTN0Zbq0X-241" style="edgeStyle=orthogonalEdgeStyle;rounded=0;orthogonalLoop=1;jettySize=auto;html=1;exitX=1;exitY=0.5;exitDx=0;exitDy=0;entryX=0;entryY=0.5;entryDx=0;entryDy=0;endArrow=none;endFill=0;" parent="WIyWlLk6GJQsqaUBKTNV-1" edge="1">
          <mxGeometry relative="1" as="geometry">
            <Array as="points">
              <mxPoint x="860.02" y="7294" />
              <mxPoint x="860.02" y="7474" />
              <mxPoint x="600.02" y="7474" />
              <mxPoint x="600.02" y="7124" />
            </Array>
            <mxPoint x="720.02" y="7124" as="targetPoint" />
          </mxGeometry>
        </mxCell>
        <mxCell id="l8IGCBfINwLVTN0Zbq0X-242" style="edgeStyle=orthogonalEdgeStyle;rounded=0;orthogonalLoop=1;jettySize=auto;html=1;exitX=0.5;exitY=1;exitDx=0;exitDy=0;entryX=0;entryY=0.5;entryDx=0;entryDy=0;endArrow=none;endFill=0;" parent="WIyWlLk6GJQsqaUBKTNV-1" edge="1">
          <mxGeometry relative="1" as="geometry">
            <Array as="points">
              <mxPoint x="778.02" y="7474" />
              <mxPoint x="600.02" y="7474" />
              <mxPoint x="600.02" y="7124" />
            </Array>
            <mxPoint x="720.02" y="7124" as="targetPoint" />
          </mxGeometry>
        </mxCell>
        <mxCell id="l8IGCBfINwLVTN0Zbq0X-243" style="edgeStyle=orthogonalEdgeStyle;rounded=0;orthogonalLoop=1;jettySize=auto;html=1;exitX=1;exitY=0.5;exitDx=0;exitDy=0;endArrow=none;endFill=0;" parent="WIyWlLk6GJQsqaUBKTNV-1" edge="1">
          <mxGeometry relative="1" as="geometry">
            <Array as="points">
              <mxPoint x="930.02" y="7554" />
              <mxPoint x="930.02" y="7794" />
              <mxPoint x="768.02" y="7794" />
            </Array>
            <mxPoint x="837.52" y="7554" as="sourcePoint" />
          </mxGeometry>
        </mxCell>
        <mxCell id="l8IGCBfINwLVTN0Zbq0X-265" style="edgeStyle=orthogonalEdgeStyle;rounded=0;orthogonalLoop=1;jettySize=auto;html=1;exitX=1;exitY=0.5;exitDx=0;exitDy=0;endArrow=none;endFill=0;" parent="WIyWlLk6GJQsqaUBKTNV-1" edge="1">
          <mxGeometry relative="1" as="geometry">
            <Array as="points">
              <mxPoint x="1030" y="3390" />
              <mxPoint x="1030" y="3960" />
              <mxPoint x="784.9999999999999" y="3960" />
            </Array>
            <mxPoint x="850.6199999999998" y="3390" as="sourcePoint" />
          </mxGeometry>
        </mxCell>
        <mxCell id="l8IGCBfINwLVTN0Zbq0X-278" style="edgeStyle=orthogonalEdgeStyle;rounded=0;orthogonalLoop=1;jettySize=auto;html=1;exitX=1;exitY=0.5;exitDx=0;exitDy=0;endArrow=none;endFill=0;" parent="WIyWlLk6GJQsqaUBKTNV-1" edge="1">
          <mxGeometry relative="1" as="geometry">
            <Array as="points">
              <mxPoint x="1443" y="6630" />
              <mxPoint x="1443" y="7200" />
              <mxPoint x="1198" y="7200" />
            </Array>
            <mxPoint x="1263.62" y="6630" as="sourcePoint" />
          </mxGeometry>
        </mxCell>
        <mxCell id="l8IGCBfINwLVTN0Zbq0X-279" style="edgeStyle=orthogonalEdgeStyle;rounded=0;orthogonalLoop=1;jettySize=auto;html=1;exitX=1;exitY=0.5;exitDx=0;exitDy=0;endArrow=none;endFill=0;" parent="WIyWlLk6GJQsqaUBKTNV-1" edge="1">
          <mxGeometry relative="1" as="geometry">
            <Array as="points">
              <mxPoint x="1270" y="6200" />
              <mxPoint x="1270" y="6340" />
              <mxPoint x="1190" y="6340" />
            </Array>
            <mxPoint x="1250" y="6200" as="sourcePoint" />
          </mxGeometry>
        </mxCell>
        <mxCell id="l8IGCBfINwLVTN0Zbq0X-280" style="edgeStyle=orthogonalEdgeStyle;rounded=0;orthogonalLoop=1;jettySize=auto;html=1;exitX=1;exitY=0.5;exitDx=0;exitDy=0;endArrow=none;endFill=0;" parent="WIyWlLk6GJQsqaUBKTNV-1" edge="1">
          <mxGeometry relative="1" as="geometry">
            <Array as="points">
              <mxPoint x="1410" y="6740" />
              <mxPoint x="1410" y="7110" />
              <mxPoint x="1175" y="7110" />
            </Array>
            <mxPoint x="1240" y="6740" as="sourcePoint" />
          </mxGeometry>
        </mxCell>
        <mxCell id="l8IGCBfINwLVTN0Zbq0X-281" style="edgeStyle=orthogonalEdgeStyle;rounded=0;orthogonalLoop=1;jettySize=auto;html=1;exitX=1;exitY=0.5;exitDx=0;exitDy=0;entryX=0;entryY=0.5;entryDx=0;entryDy=0;endArrow=none;endFill=0;" parent="WIyWlLk6GJQsqaUBKTNV-1" edge="1">
          <mxGeometry relative="1" as="geometry">
            <Array as="points">
              <mxPoint x="1260" y="6910" />
              <mxPoint x="1260" y="7090" />
              <mxPoint x="1000" y="7090" />
              <mxPoint x="1000" y="6740" />
            </Array>
            <mxPoint x="1120" y="6740" as="targetPoint" />
          </mxGeometry>
        </mxCell>
        <mxCell id="l8IGCBfINwLVTN0Zbq0X-282" style="edgeStyle=orthogonalEdgeStyle;rounded=0;orthogonalLoop=1;jettySize=auto;html=1;exitX=0.5;exitY=1;exitDx=0;exitDy=0;entryX=0;entryY=0.5;entryDx=0;entryDy=0;endArrow=none;endFill=0;" parent="WIyWlLk6GJQsqaUBKTNV-1" edge="1">
          <mxGeometry relative="1" as="geometry">
            <Array as="points">
              <mxPoint x="1178" y="7090" />
              <mxPoint x="1000" y="7090" />
              <mxPoint x="1000" y="6740" />
            </Array>
            <mxPoint x="1120" y="6740" as="targetPoint" />
          </mxGeometry>
        </mxCell>
        <mxCell id="l8IGCBfINwLVTN0Zbq0X-283" style="edgeStyle=orthogonalEdgeStyle;rounded=0;orthogonalLoop=1;jettySize=auto;html=1;exitX=1;exitY=0.5;exitDx=0;exitDy=0;endArrow=none;endFill=0;" parent="WIyWlLk6GJQsqaUBKTNV-1" edge="1">
          <mxGeometry relative="1" as="geometry">
            <Array as="points">
              <mxPoint x="1330" y="7170" />
              <mxPoint x="1330" y="7410" />
              <mxPoint x="1168" y="7410" />
            </Array>
            <mxPoint x="1237.5" y="7170" as="sourcePoint" />
          </mxGeometry>
        </mxCell>
        <mxCell id="l8IGCBfINwLVTN0Zbq0X-300" style="edgeStyle=orthogonalEdgeStyle;rounded=0;orthogonalLoop=1;jettySize=auto;html=1;exitX=1;exitY=0.5;exitDx=0;exitDy=0;endArrow=none;endFill=0;" parent="WIyWlLk6GJQsqaUBKTNV-1" edge="1">
          <mxGeometry relative="1" as="geometry">
            <Array as="points">
              <mxPoint x="1853" y="1670" />
              <mxPoint x="1853" y="2240" />
              <mxPoint x="1608" y="2240" />
            </Array>
            <mxPoint x="1673.62" y="1670" as="sourcePoint" />
          </mxGeometry>
        </mxCell>
        <mxCell id="l8IGCBfINwLVTN0Zbq0X-301" style="edgeStyle=orthogonalEdgeStyle;rounded=0;orthogonalLoop=1;jettySize=auto;html=1;exitX=1;exitY=0.5;exitDx=0;exitDy=0;endArrow=none;endFill=0;" parent="WIyWlLk6GJQsqaUBKTNV-1" edge="1">
          <mxGeometry relative="1" as="geometry">
            <Array as="points">
              <mxPoint x="1680" y="1240" />
              <mxPoint x="1680" y="1380" />
              <mxPoint x="1600" y="1380" />
            </Array>
            <mxPoint x="1660" y="1240" as="sourcePoint" />
          </mxGeometry>
        </mxCell>
        <mxCell id="l8IGCBfINwLVTN0Zbq0X-302" style="edgeStyle=orthogonalEdgeStyle;rounded=0;orthogonalLoop=1;jettySize=auto;html=1;exitX=1;exitY=0.5;exitDx=0;exitDy=0;endArrow=none;endFill=0;" parent="WIyWlLk6GJQsqaUBKTNV-1" edge="1">
          <mxGeometry relative="1" as="geometry">
            <Array as="points">
              <mxPoint x="1820" y="1780" />
              <mxPoint x="1820" y="2150" />
              <mxPoint x="1585" y="2150" />
            </Array>
            <mxPoint x="1650" y="1780" as="sourcePoint" />
          </mxGeometry>
        </mxCell>
        <mxCell id="l8IGCBfINwLVTN0Zbq0X-303" style="edgeStyle=orthogonalEdgeStyle;rounded=0;orthogonalLoop=1;jettySize=auto;html=1;exitX=1;exitY=0.5;exitDx=0;exitDy=0;entryX=0;entryY=0.5;entryDx=0;entryDy=0;endArrow=none;endFill=0;" parent="WIyWlLk6GJQsqaUBKTNV-1" edge="1">
          <mxGeometry relative="1" as="geometry">
            <Array as="points">
              <mxPoint x="1670" y="1950" />
              <mxPoint x="1670" y="2130" />
              <mxPoint x="1410" y="2130" />
              <mxPoint x="1410" y="1780" />
            </Array>
            <mxPoint x="1530" y="1780" as="targetPoint" />
          </mxGeometry>
        </mxCell>
        <mxCell id="l8IGCBfINwLVTN0Zbq0X-304" style="edgeStyle=orthogonalEdgeStyle;rounded=0;orthogonalLoop=1;jettySize=auto;html=1;exitX=0.5;exitY=1;exitDx=0;exitDy=0;entryX=0;entryY=0.5;entryDx=0;entryDy=0;endArrow=none;endFill=0;" parent="WIyWlLk6GJQsqaUBKTNV-1" edge="1">
          <mxGeometry relative="1" as="geometry">
            <Array as="points">
              <mxPoint x="1588" y="2130" />
              <mxPoint x="1410" y="2130" />
              <mxPoint x="1410" y="1780" />
            </Array>
            <mxPoint x="1530" y="1780" as="targetPoint" />
          </mxGeometry>
        </mxCell>
        <mxCell id="l8IGCBfINwLVTN0Zbq0X-305" style="edgeStyle=orthogonalEdgeStyle;rounded=0;orthogonalLoop=1;jettySize=auto;html=1;exitX=1;exitY=0.5;exitDx=0;exitDy=0;endArrow=none;endFill=0;" parent="WIyWlLk6GJQsqaUBKTNV-1" edge="1">
          <mxGeometry relative="1" as="geometry">
            <Array as="points">
              <mxPoint x="1740" y="2210" />
              <mxPoint x="1740" y="2450" />
              <mxPoint x="1578" y="2450" />
            </Array>
            <mxPoint x="1647.5" y="2210" as="sourcePoint" />
          </mxGeometry>
        </mxCell>
        <mxCell id="l8IGCBfINwLVTN0Zbq0X-315" style="edgeStyle=orthogonalEdgeStyle;rounded=0;orthogonalLoop=1;jettySize=auto;html=1;exitX=1;exitY=0.5;exitDx=0;exitDy=0;endArrow=none;endFill=0;" parent="WIyWlLk6GJQsqaUBKTNV-1" edge="1">
          <mxGeometry relative="1" as="geometry">
            <Array as="points">
              <mxPoint x="1963" y="1880" />
              <mxPoint x="1963" y="2450" />
              <mxPoint x="1718" y="2450" />
            </Array>
            <mxPoint x="1783.62" y="1880" as="sourcePoint" />
          </mxGeometry>
        </mxCell>
        <mxCell id="l8IGCBfINwLVTN0Zbq0X-316" style="edgeStyle=orthogonalEdgeStyle;rounded=0;orthogonalLoop=1;jettySize=auto;html=1;exitX=1;exitY=0.5;exitDx=0;exitDy=0;endArrow=none;endFill=0;" parent="WIyWlLk6GJQsqaUBKTNV-1" edge="1">
          <mxGeometry relative="1" as="geometry">
            <Array as="points">
              <mxPoint x="1790" y="1450" />
              <mxPoint x="1790" y="1590" />
              <mxPoint x="1710" y="1590" />
            </Array>
            <mxPoint x="1770" y="1450" as="sourcePoint" />
          </mxGeometry>
        </mxCell>
        <mxCell id="l8IGCBfINwLVTN0Zbq0X-317" style="edgeStyle=orthogonalEdgeStyle;rounded=0;orthogonalLoop=1;jettySize=auto;html=1;exitX=1;exitY=0.5;exitDx=0;exitDy=0;endArrow=none;endFill=0;" parent="WIyWlLk6GJQsqaUBKTNV-1" edge="1">
          <mxGeometry relative="1" as="geometry">
            <Array as="points">
              <mxPoint x="1930" y="1990" />
              <mxPoint x="1930" y="2360" />
              <mxPoint x="1695" y="2360" />
            </Array>
            <mxPoint x="1760" y="1990" as="sourcePoint" />
          </mxGeometry>
        </mxCell>
        <mxCell id="l8IGCBfINwLVTN0Zbq0X-318" style="edgeStyle=orthogonalEdgeStyle;rounded=0;orthogonalLoop=1;jettySize=auto;html=1;exitX=1;exitY=0.5;exitDx=0;exitDy=0;entryX=0;entryY=0.5;entryDx=0;entryDy=0;endArrow=none;endFill=0;" parent="WIyWlLk6GJQsqaUBKTNV-1" edge="1">
          <mxGeometry relative="1" as="geometry">
            <Array as="points">
              <mxPoint x="1780" y="2160" />
              <mxPoint x="1780" y="2340" />
              <mxPoint x="1520" y="2340" />
              <mxPoint x="1520" y="1990" />
            </Array>
            <mxPoint x="1640" y="1990" as="targetPoint" />
          </mxGeometry>
        </mxCell>
        <mxCell id="l8IGCBfINwLVTN0Zbq0X-319" style="edgeStyle=orthogonalEdgeStyle;rounded=0;orthogonalLoop=1;jettySize=auto;html=1;exitX=0.5;exitY=1;exitDx=0;exitDy=0;entryX=0;entryY=0.5;entryDx=0;entryDy=0;endArrow=none;endFill=0;" parent="WIyWlLk6GJQsqaUBKTNV-1" edge="1">
          <mxGeometry relative="1" as="geometry">
            <Array as="points">
              <mxPoint x="1698" y="2340" />
              <mxPoint x="1520" y="2340" />
              <mxPoint x="1520" y="1990" />
            </Array>
            <mxPoint x="1640" y="1990" as="targetPoint" />
          </mxGeometry>
        </mxCell>
        <mxCell id="l8IGCBfINwLVTN0Zbq0X-320" style="edgeStyle=orthogonalEdgeStyle;rounded=0;orthogonalLoop=1;jettySize=auto;html=1;exitX=1;exitY=0.5;exitDx=0;exitDy=0;endArrow=none;endFill=0;" parent="WIyWlLk6GJQsqaUBKTNV-1" edge="1">
          <mxGeometry relative="1" as="geometry">
            <Array as="points">
              <mxPoint x="1850" y="2420" />
              <mxPoint x="1850" y="2660" />
              <mxPoint x="1688" y="2660" />
            </Array>
            <mxPoint x="1757.5" y="2420" as="sourcePoint" />
          </mxGeometry>
        </mxCell>
        <mxCell id="KRCCK3rTStJYhaIaurz0-116" style="edgeStyle=orthogonalEdgeStyle;rounded=0;orthogonalLoop=1;jettySize=auto;html=1;exitX=1;exitY=0.5;exitDx=0;exitDy=0;endArrow=none;endFill=0;" parent="WIyWlLk6GJQsqaUBKTNV-1" edge="1">
          <mxGeometry relative="1" as="geometry">
            <Array as="points">
              <mxPoint x="2300" y="900" />
              <mxPoint x="2300" y="1040" />
              <mxPoint x="2220" y="1040" />
            </Array>
            <mxPoint x="2280" y="900" as="sourcePoint" />
          </mxGeometry>
        </mxCell>
        <mxCell id="KRCCK3rTStJYhaIaurz0-117" style="edgeStyle=orthogonalEdgeStyle;rounded=0;orthogonalLoop=1;jettySize=auto;html=1;exitX=1;exitY=0.5;exitDx=0;exitDy=0;endArrow=none;endFill=0;" parent="WIyWlLk6GJQsqaUBKTNV-1" edge="1">
          <mxGeometry relative="1" as="geometry">
            <Array as="points">
              <mxPoint x="2440" y="1440" />
              <mxPoint x="2440" y="1810" />
              <mxPoint x="2205" y="1810" />
            </Array>
            <mxPoint x="2270" y="1440" as="sourcePoint" />
          </mxGeometry>
        </mxCell>
        <mxCell id="KRCCK3rTStJYhaIaurz0-118" style="edgeStyle=orthogonalEdgeStyle;rounded=0;orthogonalLoop=1;jettySize=auto;html=1;exitX=1;exitY=0.5;exitDx=0;exitDy=0;entryX=0;entryY=0.5;entryDx=0;entryDy=0;endArrow=none;endFill=0;" parent="WIyWlLk6GJQsqaUBKTNV-1" edge="1">
          <mxGeometry relative="1" as="geometry">
            <Array as="points">
              <mxPoint x="2290" y="1610" />
              <mxPoint x="2290" y="1790" />
              <mxPoint x="2030" y="1790" />
              <mxPoint x="2030" y="1440" />
            </Array>
            <mxPoint x="2150" y="1440" as="targetPoint" />
          </mxGeometry>
        </mxCell>
        <mxCell id="KRCCK3rTStJYhaIaurz0-119" style="edgeStyle=orthogonalEdgeStyle;rounded=0;orthogonalLoop=1;jettySize=auto;html=1;exitX=0.5;exitY=1;exitDx=0;exitDy=0;entryX=0;entryY=0.5;entryDx=0;entryDy=0;endArrow=none;endFill=0;" parent="WIyWlLk6GJQsqaUBKTNV-1" edge="1">
          <mxGeometry relative="1" as="geometry">
            <Array as="points">
              <mxPoint x="2208" y="1790" />
              <mxPoint x="2030" y="1790" />
              <mxPoint x="2030" y="1440" />
            </Array>
            <mxPoint x="2150" y="1440" as="targetPoint" />
          </mxGeometry>
        </mxCell>
        <mxCell id="KRCCK3rTStJYhaIaurz0-120" style="edgeStyle=orthogonalEdgeStyle;rounded=0;orthogonalLoop=1;jettySize=auto;html=1;exitX=1;exitY=0.5;exitDx=0;exitDy=0;endArrow=none;endFill=0;" parent="WIyWlLk6GJQsqaUBKTNV-1" edge="1">
          <mxGeometry relative="1" as="geometry">
            <Array as="points">
              <mxPoint x="2360" y="1870" />
              <mxPoint x="2360" y="2110" />
              <mxPoint x="2198" y="2110" />
            </Array>
            <mxPoint x="2267.5" y="1870" as="sourcePoint" />
          </mxGeometry>
        </mxCell>
        <mxCell id="KRCCK3rTStJYhaIaurz0-168" style="edgeStyle=orthogonalEdgeStyle;rounded=0;orthogonalLoop=1;jettySize=auto;html=1;exitX=1;exitY=0.5;exitDx=0;exitDy=0;endArrow=none;endFill=0;" parent="WIyWlLk6GJQsqaUBKTNV-1" edge="1">
          <mxGeometry relative="1" as="geometry">
            <Array as="points">
              <mxPoint x="1540" y="1900" />
              <mxPoint x="1540" y="2470" />
              <mxPoint x="1295" y="2470" />
            </Array>
            <mxPoint x="1360.62" y="1900" as="sourcePoint" />
          </mxGeometry>
        </mxCell>
        <mxCell id="KRCCK3rTStJYhaIaurz0-181" style="edgeStyle=orthogonalEdgeStyle;rounded=0;orthogonalLoop=1;jettySize=auto;html=1;exitX=1;exitY=0.5;exitDx=0;exitDy=0;endArrow=none;endFill=0;" parent="WIyWlLk6GJQsqaUBKTNV-1" edge="1">
          <mxGeometry relative="1" as="geometry">
            <Array as="points">
              <mxPoint x="1913" y="3940" />
              <mxPoint x="1913" y="4510" />
              <mxPoint x="1668" y="4510" />
            </Array>
            <mxPoint x="1733.62" y="3940" as="sourcePoint" />
          </mxGeometry>
        </mxCell>
        <mxCell id="KRCCK3rTStJYhaIaurz0-182" style="edgeStyle=orthogonalEdgeStyle;rounded=0;orthogonalLoop=1;jettySize=auto;html=1;exitX=1;exitY=0.5;exitDx=0;exitDy=0;endArrow=none;endFill=0;" parent="WIyWlLk6GJQsqaUBKTNV-1" edge="1">
          <mxGeometry relative="1" as="geometry">
            <Array as="points">
              <mxPoint x="1740" y="3510" />
              <mxPoint x="1740" y="3650" />
              <mxPoint x="1660" y="3650" />
            </Array>
            <mxPoint x="1720" y="3510" as="sourcePoint" />
          </mxGeometry>
        </mxCell>
        <mxCell id="KRCCK3rTStJYhaIaurz0-183" style="edgeStyle=orthogonalEdgeStyle;rounded=0;orthogonalLoop=1;jettySize=auto;html=1;exitX=1;exitY=0.5;exitDx=0;exitDy=0;endArrow=none;endFill=0;" parent="WIyWlLk6GJQsqaUBKTNV-1" edge="1">
          <mxGeometry relative="1" as="geometry">
            <Array as="points">
              <mxPoint x="1880" y="4050" />
              <mxPoint x="1880" y="4420" />
              <mxPoint x="1645" y="4420" />
            </Array>
            <mxPoint x="1710" y="4050" as="sourcePoint" />
          </mxGeometry>
        </mxCell>
        <mxCell id="KRCCK3rTStJYhaIaurz0-184" style="edgeStyle=orthogonalEdgeStyle;rounded=0;orthogonalLoop=1;jettySize=auto;html=1;exitX=1;exitY=0.5;exitDx=0;exitDy=0;entryX=0;entryY=0.5;entryDx=0;entryDy=0;endArrow=none;endFill=0;" parent="WIyWlLk6GJQsqaUBKTNV-1" edge="1">
          <mxGeometry relative="1" as="geometry">
            <Array as="points">
              <mxPoint x="1730" y="4220" />
              <mxPoint x="1730" y="4400" />
              <mxPoint x="1470" y="4400" />
              <mxPoint x="1470" y="4050" />
            </Array>
            <mxPoint x="1590" y="4050" as="targetPoint" />
          </mxGeometry>
        </mxCell>
        <mxCell id="KRCCK3rTStJYhaIaurz0-185" style="edgeStyle=orthogonalEdgeStyle;rounded=0;orthogonalLoop=1;jettySize=auto;html=1;exitX=0.5;exitY=1;exitDx=0;exitDy=0;entryX=0;entryY=0.5;entryDx=0;entryDy=0;endArrow=none;endFill=0;" parent="WIyWlLk6GJQsqaUBKTNV-1" edge="1">
          <mxGeometry relative="1" as="geometry">
            <Array as="points">
              <mxPoint x="1648" y="4400" />
              <mxPoint x="1470" y="4400" />
              <mxPoint x="1470" y="4050" />
            </Array>
            <mxPoint x="1590" y="4050" as="targetPoint" />
          </mxGeometry>
        </mxCell>
        <mxCell id="KRCCK3rTStJYhaIaurz0-186" style="edgeStyle=orthogonalEdgeStyle;rounded=0;orthogonalLoop=1;jettySize=auto;html=1;exitX=1;exitY=0.5;exitDx=0;exitDy=0;endArrow=none;endFill=0;" parent="WIyWlLk6GJQsqaUBKTNV-1" edge="1">
          <mxGeometry relative="1" as="geometry">
            <Array as="points">
              <mxPoint x="1800" y="4480" />
              <mxPoint x="1800" y="4720" />
              <mxPoint x="1638" y="4720" />
            </Array>
            <mxPoint x="1707.5" y="4480" as="sourcePoint" />
          </mxGeometry>
        </mxCell>
        <mxCell id="KRCCK3rTStJYhaIaurz0-203" style="edgeStyle=orthogonalEdgeStyle;rounded=0;orthogonalLoop=1;jettySize=auto;html=1;exitX=1;exitY=0.5;exitDx=0;exitDy=0;endArrow=none;endFill=0;" parent="WIyWlLk6GJQsqaUBKTNV-1" edge="1">
          <mxGeometry relative="1" as="geometry">
            <Array as="points">
              <mxPoint x="1583" y="5880" />
              <mxPoint x="1583" y="6450" />
              <mxPoint x="1338" y="6450" />
            </Array>
            <mxPoint x="1403.62" y="5880" as="sourcePoint" />
          </mxGeometry>
        </mxCell>
        <mxCell id="KRCCK3rTStJYhaIaurz0-204" style="edgeStyle=orthogonalEdgeStyle;rounded=0;orthogonalLoop=1;jettySize=auto;html=1;exitX=1;exitY=0.5;exitDx=0;exitDy=0;endArrow=none;endFill=0;" parent="WIyWlLk6GJQsqaUBKTNV-1" edge="1">
          <mxGeometry relative="1" as="geometry">
            <Array as="points">
              <mxPoint x="1410" y="5450" />
              <mxPoint x="1410" y="5590" />
              <mxPoint x="1330" y="5590" />
            </Array>
            <mxPoint x="1390" y="5450" as="sourcePoint" />
          </mxGeometry>
        </mxCell>
        <mxCell id="KRCCK3rTStJYhaIaurz0-205" style="edgeStyle=orthogonalEdgeStyle;rounded=0;orthogonalLoop=1;jettySize=auto;html=1;exitX=1;exitY=0.5;exitDx=0;exitDy=0;endArrow=none;endFill=0;" parent="WIyWlLk6GJQsqaUBKTNV-1" edge="1">
          <mxGeometry relative="1" as="geometry">
            <Array as="points">
              <mxPoint x="1550" y="5990" />
              <mxPoint x="1550" y="6360" />
              <mxPoint x="1315" y="6360" />
            </Array>
            <mxPoint x="1380" y="5990" as="sourcePoint" />
          </mxGeometry>
        </mxCell>
        <mxCell id="KRCCK3rTStJYhaIaurz0-206" style="edgeStyle=orthogonalEdgeStyle;rounded=0;orthogonalLoop=1;jettySize=auto;html=1;exitX=1;exitY=0.5;exitDx=0;exitDy=0;entryX=0;entryY=0.5;entryDx=0;entryDy=0;endArrow=none;endFill=0;" parent="WIyWlLk6GJQsqaUBKTNV-1" edge="1">
          <mxGeometry relative="1" as="geometry">
            <Array as="points">
              <mxPoint x="1400" y="6160" />
              <mxPoint x="1400" y="6340" />
              <mxPoint x="1140" y="6340" />
              <mxPoint x="1140" y="5990" />
            </Array>
            <mxPoint x="1260" y="5990" as="targetPoint" />
          </mxGeometry>
        </mxCell>
        <mxCell id="KRCCK3rTStJYhaIaurz0-207" style="edgeStyle=orthogonalEdgeStyle;rounded=0;orthogonalLoop=1;jettySize=auto;html=1;exitX=0.5;exitY=1;exitDx=0;exitDy=0;entryX=0;entryY=0.5;entryDx=0;entryDy=0;endArrow=none;endFill=0;" parent="WIyWlLk6GJQsqaUBKTNV-1" edge="1">
          <mxGeometry relative="1" as="geometry">
            <Array as="points">
              <mxPoint x="1318" y="6340" />
              <mxPoint x="1140" y="6340" />
              <mxPoint x="1140" y="5990" />
            </Array>
            <mxPoint x="1260" y="5990" as="targetPoint" />
          </mxGeometry>
        </mxCell>
        <mxCell id="KRCCK3rTStJYhaIaurz0-208" style="edgeStyle=orthogonalEdgeStyle;rounded=0;orthogonalLoop=1;jettySize=auto;html=1;exitX=1;exitY=0.5;exitDx=0;exitDy=0;endArrow=none;endFill=0;" parent="WIyWlLk6GJQsqaUBKTNV-1" edge="1">
          <mxGeometry relative="1" as="geometry">
            <Array as="points">
              <mxPoint x="1470" y="6420" />
              <mxPoint x="1470" y="6660" />
              <mxPoint x="1308" y="6660" />
            </Array>
            <mxPoint x="1377.5" y="6420" as="sourcePoint" />
          </mxGeometry>
        </mxCell>
        <mxCell id="KRCCK3rTStJYhaIaurz0-240" style="edgeStyle=orthogonalEdgeStyle;rounded=0;orthogonalLoop=1;jettySize=auto;html=1;exitX=1;exitY=0.5;exitDx=0;exitDy=0;entryX=0;entryY=0.5;entryDx=0;entryDy=0;endArrow=none;endFill=0;" parent="WIyWlLk6GJQsqaUBKTNV-1" edge="1">
          <mxGeometry relative="1" as="geometry">
            <Array as="points">
              <mxPoint x="1700" y="9875" />
              <mxPoint x="1700" y="10360" />
              <mxPoint x="1320" y="10360" />
              <mxPoint x="1320" y="9805" />
            </Array>
            <mxPoint x="1490" y="9805" as="targetPoint" />
          </mxGeometry>
        </mxCell>
        <mxCell id="KRCCK3rTStJYhaIaurz0-280" style="edgeStyle=orthogonalEdgeStyle;rounded=0;orthogonalLoop=1;jettySize=auto;html=1;exitX=1;exitY=0.5;exitDx=0;exitDy=0;endArrow=none;endFill=0;" parent="WIyWlLk6GJQsqaUBKTNV-1" edge="1">
          <mxGeometry relative="1" as="geometry">
            <Array as="points">
              <mxPoint x="2340" y="8150" />
              <mxPoint x="2340" y="8290" />
              <mxPoint x="2260" y="8290" />
            </Array>
            <mxPoint x="2320" y="8150" as="sourcePoint" />
          </mxGeometry>
        </mxCell>
        <mxCell id="KRCCK3rTStJYhaIaurz0-281" style="edgeStyle=orthogonalEdgeStyle;rounded=0;orthogonalLoop=1;jettySize=auto;html=1;exitX=1;exitY=0.5;exitDx=0;exitDy=0;endArrow=none;endFill=0;" parent="WIyWlLk6GJQsqaUBKTNV-1" edge="1">
          <mxGeometry relative="1" as="geometry">
            <Array as="points">
              <mxPoint x="2480" y="8690" />
              <mxPoint x="2480" y="9060" />
              <mxPoint x="2245" y="9060" />
            </Array>
            <mxPoint x="2310" y="8690" as="sourcePoint" />
          </mxGeometry>
        </mxCell>
        <mxCell id="KRCCK3rTStJYhaIaurz0-282" style="edgeStyle=orthogonalEdgeStyle;rounded=0;orthogonalLoop=1;jettySize=auto;html=1;exitX=1;exitY=0.5;exitDx=0;exitDy=0;entryX=0;entryY=0.5;entryDx=0;entryDy=0;endArrow=none;endFill=0;" parent="WIyWlLk6GJQsqaUBKTNV-1" edge="1">
          <mxGeometry relative="1" as="geometry">
            <Array as="points">
              <mxPoint x="2330" y="8860" />
              <mxPoint x="2330" y="9040" />
              <mxPoint x="2070" y="9040" />
              <mxPoint x="2070" y="8690" />
            </Array>
            <mxPoint x="2190" y="8690" as="targetPoint" />
          </mxGeometry>
        </mxCell>
        <mxCell id="KRCCK3rTStJYhaIaurz0-283" style="edgeStyle=orthogonalEdgeStyle;rounded=0;orthogonalLoop=1;jettySize=auto;html=1;exitX=0.5;exitY=1;exitDx=0;exitDy=0;entryX=0;entryY=0.5;entryDx=0;entryDy=0;endArrow=none;endFill=0;" parent="WIyWlLk6GJQsqaUBKTNV-1" edge="1">
          <mxGeometry relative="1" as="geometry">
            <Array as="points">
              <mxPoint x="2248" y="9040" />
              <mxPoint x="2070" y="9040" />
              <mxPoint x="2070" y="8690" />
            </Array>
            <mxPoint x="2190" y="8690" as="targetPoint" />
          </mxGeometry>
        </mxCell>
        <mxCell id="KRCCK3rTStJYhaIaurz0-284" style="edgeStyle=orthogonalEdgeStyle;rounded=0;orthogonalLoop=1;jettySize=auto;html=1;exitX=1;exitY=0.5;exitDx=0;exitDy=0;endArrow=none;endFill=0;" parent="WIyWlLk6GJQsqaUBKTNV-1" edge="1">
          <mxGeometry relative="1" as="geometry">
            <Array as="points">
              <mxPoint x="2400" y="9120" />
              <mxPoint x="2400" y="9360" />
              <mxPoint x="2238" y="9360" />
            </Array>
            <mxPoint x="2307.5" y="9120" as="sourcePoint" />
          </mxGeometry>
        </mxCell>
        <mxCell id="KRCCK3rTStJYhaIaurz0-613" style="edgeStyle=orthogonalEdgeStyle;rounded=0;orthogonalLoop=1;jettySize=auto;html=1;exitX=1;exitY=0.5;exitDx=0;exitDy=0;entryX=0;entryY=0.5;entryDx=0;entryDy=0;endArrow=none;endFill=0;" parent="WIyWlLk6GJQsqaUBKTNV-1" edge="1">
          <mxGeometry relative="1" as="geometry">
            <Array as="points">
              <mxPoint x="2000" y="3735" />
              <mxPoint x="2000" y="4220" />
              <mxPoint x="1620" y="4220" />
              <mxPoint x="1620" y="3665" />
            </Array>
            <mxPoint x="1790" y="3665" as="targetPoint" />
          </mxGeometry>
        </mxCell>
        <mxCell id="KRCCK3rTStJYhaIaurz0-616" style="edgeStyle=orthogonalEdgeStyle;rounded=0;orthogonalLoop=1;jettySize=auto;html=1;exitX=1;exitY=0.5;exitDx=0;exitDy=0;entryX=0;entryY=0.5;entryDx=0;entryDy=0;endArrow=none;endFill=0;" parent="WIyWlLk6GJQsqaUBKTNV-1" edge="1">
          <mxGeometry relative="1" as="geometry">
            <mxPoint x="1790" y="3735" as="targetPoint" />
            <Array as="points">
              <mxPoint x="1950" y="3805" />
              <mxPoint x="1950" y="4210" />
              <mxPoint x="1700" y="4210" />
              <mxPoint x="1700" y="3735" />
            </Array>
          </mxGeometry>
        </mxCell>
        <mxCell id="KRCCK3rTStJYhaIaurz0-637" style="edgeStyle=orthogonalEdgeStyle;rounded=0;orthogonalLoop=1;jettySize=auto;html=1;exitX=1;exitY=0.5;exitDx=0;exitDy=0;" parent="WIyWlLk6GJQsqaUBKTNV-1" edge="1">
          <mxGeometry relative="1" as="geometry">
            <Array as="points">
              <mxPoint x="1960" y="1690" />
              <mxPoint x="1960" y="2190" />
              <mxPoint x="1850" y="2190" />
            </Array>
            <mxPoint x="1915" y="1690" as="sourcePoint" />
          </mxGeometry>
        </mxCell>
        <mxCell id="KRCCK3rTStJYhaIaurz0-653" style="edgeStyle=orthogonalEdgeStyle;rounded=0;orthogonalLoop=1;jettySize=auto;html=1;exitX=1;exitY=0.5;exitDx=0;exitDy=0;endArrow=none;endFill=0;" parent="WIyWlLk6GJQsqaUBKTNV-1" edge="1">
          <mxGeometry relative="1" as="geometry">
            <Array as="points">
              <mxPoint x="2640" y="2010" />
              <mxPoint x="2640" y="2150" />
              <mxPoint x="2560" y="2150" />
            </Array>
            <mxPoint x="2620" y="2010" as="sourcePoint" />
          </mxGeometry>
        </mxCell>
        <mxCell id="KRCCK3rTStJYhaIaurz0-654" style="edgeStyle=orthogonalEdgeStyle;rounded=0;orthogonalLoop=1;jettySize=auto;html=1;exitX=1;exitY=0.5;exitDx=0;exitDy=0;endArrow=none;endFill=0;" parent="WIyWlLk6GJQsqaUBKTNV-1" edge="1">
          <mxGeometry relative="1" as="geometry">
            <Array as="points">
              <mxPoint x="2780" y="2550" />
              <mxPoint x="2780" y="2920" />
              <mxPoint x="2545" y="2920" />
            </Array>
            <mxPoint x="2610" y="2550" as="sourcePoint" />
          </mxGeometry>
        </mxCell>
        <mxCell id="KRCCK3rTStJYhaIaurz0-655" style="edgeStyle=orthogonalEdgeStyle;rounded=0;orthogonalLoop=1;jettySize=auto;html=1;exitX=1;exitY=0.5;exitDx=0;exitDy=0;entryX=0;entryY=0.5;entryDx=0;entryDy=0;endArrow=none;endFill=0;" parent="WIyWlLk6GJQsqaUBKTNV-1" edge="1">
          <mxGeometry relative="1" as="geometry">
            <Array as="points">
              <mxPoint x="2630" y="2720" />
              <mxPoint x="2630" y="2900" />
              <mxPoint x="2370" y="2900" />
              <mxPoint x="2370" y="2550" />
            </Array>
            <mxPoint x="2490" y="2550" as="targetPoint" />
          </mxGeometry>
        </mxCell>
        <mxCell id="KRCCK3rTStJYhaIaurz0-656" style="edgeStyle=orthogonalEdgeStyle;rounded=0;orthogonalLoop=1;jettySize=auto;html=1;exitX=0.5;exitY=1;exitDx=0;exitDy=0;entryX=0;entryY=0.5;entryDx=0;entryDy=0;endArrow=none;endFill=0;" parent="WIyWlLk6GJQsqaUBKTNV-1" edge="1">
          <mxGeometry relative="1" as="geometry">
            <Array as="points">
              <mxPoint x="2548" y="2900" />
              <mxPoint x="2370" y="2900" />
              <mxPoint x="2370" y="2550" />
            </Array>
            <mxPoint x="2490" y="2550" as="targetPoint" />
          </mxGeometry>
        </mxCell>
        <mxCell id="KRCCK3rTStJYhaIaurz0-657" style="edgeStyle=orthogonalEdgeStyle;rounded=0;orthogonalLoop=1;jettySize=auto;html=1;exitX=1;exitY=0.5;exitDx=0;exitDy=0;endArrow=none;endFill=0;" parent="WIyWlLk6GJQsqaUBKTNV-1" edge="1">
          <mxGeometry relative="1" as="geometry">
            <Array as="points">
              <mxPoint x="2700" y="2980" />
              <mxPoint x="2700" y="3220" />
              <mxPoint x="2538" y="3220" />
            </Array>
            <mxPoint x="2607.5" y="2980" as="sourcePoint" />
          </mxGeometry>
        </mxCell>
        <mxCell id="KRCCK3rTStJYhaIaurz0-666" style="edgeStyle=orthogonalEdgeStyle;rounded=0;orthogonalLoop=1;jettySize=auto;html=1;exitX=1;exitY=0.5;exitDx=0;exitDy=0;endArrow=none;endFill=0;" parent="WIyWlLk6GJQsqaUBKTNV-1" edge="1">
          <mxGeometry relative="1" as="geometry">
            <Array as="points">
              <mxPoint x="2720" y="3690" />
              <mxPoint x="2720" y="4040" />
              <mxPoint x="2524" y="4040" />
            </Array>
            <mxPoint x="2593.75" y="3690" as="sourcePoint" />
          </mxGeometry>
        </mxCell>
        <mxCell id="KRCCK3rTStJYhaIaurz0-669" style="edgeStyle=orthogonalEdgeStyle;rounded=0;orthogonalLoop=1;jettySize=auto;html=1;exitX=1;exitY=0.5;exitDx=0;exitDy=0;endArrow=none;endFill=0;" parent="WIyWlLk6GJQsqaUBKTNV-1" edge="1">
          <mxGeometry relative="1" as="geometry">
            <Array as="points">
              <mxPoint x="2630" y="3795" />
              <mxPoint x="2630" y="3930" />
              <mxPoint x="2529" y="3930" />
            </Array>
            <mxPoint x="2578.12" y="3795" as="sourcePoint" />
          </mxGeometry>
        </mxCell>
        <mxCell id="KRCCK3rTStJYhaIaurz0-679" style="edgeStyle=orthogonalEdgeStyle;rounded=0;orthogonalLoop=1;jettySize=auto;html=1;exitX=1;exitY=0.5;exitDx=0;exitDy=0;endArrow=none;endFill=0;" parent="WIyWlLk6GJQsqaUBKTNV-1" edge="1">
          <mxGeometry relative="1" as="geometry">
            <Array as="points">
              <mxPoint x="1880" y="2230" />
              <mxPoint x="1880" y="2800" />
              <mxPoint x="1635" y="2800" />
            </Array>
            <mxPoint x="1700.62" y="2230" as="sourcePoint" />
          </mxGeometry>
        </mxCell>
        <mxCell id="KRCCK3rTStJYhaIaurz0-692" style="edgeStyle=orthogonalEdgeStyle;rounded=0;orthogonalLoop=1;jettySize=auto;html=1;exitX=1;exitY=0.5;exitDx=0;exitDy=0;endArrow=none;endFill=0;" parent="WIyWlLk6GJQsqaUBKTNV-1" edge="1">
          <mxGeometry relative="1" as="geometry">
            <Array as="points">
              <mxPoint x="203" y="120" />
              <mxPoint x="203" y="690" />
              <mxPoint x="-42" y="690" />
            </Array>
            <mxPoint x="23.61999999999989" y="120" as="sourcePoint" />
          </mxGeometry>
        </mxCell>
        <mxCell id="KRCCK3rTStJYhaIaurz0-693" style="edgeStyle=orthogonalEdgeStyle;rounded=0;orthogonalLoop=1;jettySize=auto;html=1;exitX=1;exitY=0.5;exitDx=0;exitDy=0;endArrow=none;endFill=0;" parent="WIyWlLk6GJQsqaUBKTNV-1" edge="1">
          <mxGeometry relative="1" as="geometry">
            <Array as="points">
              <mxPoint x="30" y="-310" />
              <mxPoint x="30" y="-170" />
              <mxPoint x="-50" y="-170" />
            </Array>
            <mxPoint x="10" y="-310" as="sourcePoint" />
          </mxGeometry>
        </mxCell>
        <mxCell id="KRCCK3rTStJYhaIaurz0-694" style="edgeStyle=orthogonalEdgeStyle;rounded=0;orthogonalLoop=1;jettySize=auto;html=1;exitX=1;exitY=0.5;exitDx=0;exitDy=0;endArrow=none;endFill=0;" parent="WIyWlLk6GJQsqaUBKTNV-1" edge="1">
          <mxGeometry relative="1" as="geometry">
            <Array as="points">
              <mxPoint x="170" y="230" />
              <mxPoint x="170" y="600" />
              <mxPoint x="-65" y="600" />
            </Array>
            <mxPoint y="230" as="sourcePoint" />
          </mxGeometry>
        </mxCell>
        <mxCell id="KRCCK3rTStJYhaIaurz0-695" style="edgeStyle=orthogonalEdgeStyle;rounded=0;orthogonalLoop=1;jettySize=auto;html=1;exitX=1;exitY=0.5;exitDx=0;exitDy=0;entryX=0;entryY=0.5;entryDx=0;entryDy=0;endArrow=none;endFill=0;" parent="WIyWlLk6GJQsqaUBKTNV-1" edge="1">
          <mxGeometry relative="1" as="geometry">
            <Array as="points">
              <mxPoint x="20" y="400" />
              <mxPoint x="20" y="580" />
              <mxPoint x="-240" y="580" />
              <mxPoint x="-240" y="230" />
            </Array>
            <mxPoint x="-120" y="230" as="targetPoint" />
          </mxGeometry>
        </mxCell>
        <mxCell id="KRCCK3rTStJYhaIaurz0-696" style="edgeStyle=orthogonalEdgeStyle;rounded=0;orthogonalLoop=1;jettySize=auto;html=1;exitX=0.5;exitY=1;exitDx=0;exitDy=0;entryX=0;entryY=0.5;entryDx=0;entryDy=0;endArrow=none;endFill=0;" parent="WIyWlLk6GJQsqaUBKTNV-1" edge="1">
          <mxGeometry relative="1" as="geometry">
            <Array as="points">
              <mxPoint x="-62" y="580" />
              <mxPoint x="-240" y="580" />
              <mxPoint x="-240" y="230" />
            </Array>
            <mxPoint x="-120" y="230" as="targetPoint" />
          </mxGeometry>
        </mxCell>
        <mxCell id="KRCCK3rTStJYhaIaurz0-697" style="edgeStyle=orthogonalEdgeStyle;rounded=0;orthogonalLoop=1;jettySize=auto;html=1;exitX=1;exitY=0.5;exitDx=0;exitDy=0;endArrow=none;endFill=0;" parent="WIyWlLk6GJQsqaUBKTNV-1" edge="1">
          <mxGeometry relative="1" as="geometry">
            <Array as="points">
              <mxPoint x="90" y="660" />
              <mxPoint x="90" y="900" />
              <mxPoint x="-72" y="900" />
            </Array>
            <mxPoint x="-2.5" y="660" as="sourcePoint" />
          </mxGeometry>
        </mxCell>
        <mxCell id="KRCCK3rTStJYhaIaurz0-709" style="edgeStyle=orthogonalEdgeStyle;rounded=0;orthogonalLoop=1;jettySize=auto;html=1;exitX=1;exitY=0.5;exitDx=0;exitDy=0;endArrow=none;endFill=0;" parent="WIyWlLk6GJQsqaUBKTNV-1" edge="1">
          <mxGeometry relative="1" as="geometry">
            <Array as="points">
              <mxPoint x="1493" y="-250" />
              <mxPoint x="1493" y="320" />
              <mxPoint x="1248" y="320" />
            </Array>
            <mxPoint x="1313.62" y="-250" as="sourcePoint" />
          </mxGeometry>
        </mxCell>
        <mxCell id="KRCCK3rTStJYhaIaurz0-710" style="edgeStyle=orthogonalEdgeStyle;rounded=0;orthogonalLoop=1;jettySize=auto;html=1;exitX=1;exitY=0.5;exitDx=0;exitDy=0;endArrow=none;endFill=0;" parent="WIyWlLk6GJQsqaUBKTNV-1" edge="1">
          <mxGeometry relative="1" as="geometry">
            <Array as="points">
              <mxPoint x="1320" y="-680" />
              <mxPoint x="1320" y="-540" />
              <mxPoint x="1240" y="-540" />
            </Array>
            <mxPoint x="1300" y="-680" as="sourcePoint" />
          </mxGeometry>
        </mxCell>
        <mxCell id="KRCCK3rTStJYhaIaurz0-711" style="edgeStyle=orthogonalEdgeStyle;rounded=0;orthogonalLoop=1;jettySize=auto;html=1;exitX=1;exitY=0.5;exitDx=0;exitDy=0;endArrow=none;endFill=0;" parent="WIyWlLk6GJQsqaUBKTNV-1" edge="1">
          <mxGeometry relative="1" as="geometry">
            <Array as="points">
              <mxPoint x="1460" y="-140" />
              <mxPoint x="1460" y="230" />
              <mxPoint x="1225" y="230" />
            </Array>
            <mxPoint x="1290" y="-140" as="sourcePoint" />
          </mxGeometry>
        </mxCell>
        <mxCell id="KRCCK3rTStJYhaIaurz0-712" style="edgeStyle=orthogonalEdgeStyle;rounded=0;orthogonalLoop=1;jettySize=auto;html=1;exitX=1;exitY=0.5;exitDx=0;exitDy=0;entryX=0;entryY=0.5;entryDx=0;entryDy=0;endArrow=none;endFill=0;" parent="WIyWlLk6GJQsqaUBKTNV-1" edge="1">
          <mxGeometry relative="1" as="geometry">
            <Array as="points">
              <mxPoint x="1310" y="30" />
              <mxPoint x="1310" y="210" />
              <mxPoint x="1050" y="210" />
              <mxPoint x="1050" y="-140" />
            </Array>
            <mxPoint x="1170" y="-140" as="targetPoint" />
          </mxGeometry>
        </mxCell>
        <mxCell id="KRCCK3rTStJYhaIaurz0-713" style="edgeStyle=orthogonalEdgeStyle;rounded=0;orthogonalLoop=1;jettySize=auto;html=1;exitX=0.5;exitY=1;exitDx=0;exitDy=0;entryX=0;entryY=0.5;entryDx=0;entryDy=0;endArrow=none;endFill=0;" parent="WIyWlLk6GJQsqaUBKTNV-1" edge="1">
          <mxGeometry relative="1" as="geometry">
            <Array as="points">
              <mxPoint x="1228" y="210" />
              <mxPoint x="1050" y="210" />
              <mxPoint x="1050" y="-140" />
            </Array>
            <mxPoint x="1170" y="-140" as="targetPoint" />
          </mxGeometry>
        </mxCell>
        <mxCell id="KRCCK3rTStJYhaIaurz0-714" style="edgeStyle=orthogonalEdgeStyle;rounded=0;orthogonalLoop=1;jettySize=auto;html=1;exitX=1;exitY=0.5;exitDx=0;exitDy=0;endArrow=none;endFill=0;" parent="WIyWlLk6GJQsqaUBKTNV-1" edge="1">
          <mxGeometry relative="1" as="geometry">
            <Array as="points">
              <mxPoint x="1380" y="290" />
              <mxPoint x="1380" y="530" />
              <mxPoint x="1218" y="530" />
            </Array>
            <mxPoint x="1287.5" y="290" as="sourcePoint" />
          </mxGeometry>
        </mxCell>
        <mxCell id="KRCCK3rTStJYhaIaurz0-724" style="edgeStyle=orthogonalEdgeStyle;rounded=0;orthogonalLoop=1;jettySize=auto;html=1;exitX=1;exitY=0.5;exitDx=0;exitDy=0;endArrow=none;endFill=0;" parent="WIyWlLk6GJQsqaUBKTNV-1" edge="1">
          <mxGeometry relative="1" as="geometry">
            <Array as="points">
              <mxPoint x="1323" y="850" />
              <mxPoint x="1323" y="1420" />
              <mxPoint x="1078" y="1420" />
            </Array>
            <mxPoint x="1143.62" y="850" as="sourcePoint" />
          </mxGeometry>
        </mxCell>
        <mxCell id="KRCCK3rTStJYhaIaurz0-725" style="edgeStyle=orthogonalEdgeStyle;rounded=0;orthogonalLoop=1;jettySize=auto;html=1;exitX=1;exitY=0.5;exitDx=0;exitDy=0;endArrow=none;endFill=0;" parent="WIyWlLk6GJQsqaUBKTNV-1" edge="1">
          <mxGeometry relative="1" as="geometry">
            <Array as="points">
              <mxPoint x="1150" y="420" />
              <mxPoint x="1150" y="560" />
              <mxPoint x="1070" y="560" />
            </Array>
            <mxPoint x="1130" y="420" as="sourcePoint" />
          </mxGeometry>
        </mxCell>
        <mxCell id="KRCCK3rTStJYhaIaurz0-726" style="edgeStyle=orthogonalEdgeStyle;rounded=0;orthogonalLoop=1;jettySize=auto;html=1;exitX=1;exitY=0.5;exitDx=0;exitDy=0;endArrow=none;endFill=0;" parent="WIyWlLk6GJQsqaUBKTNV-1" edge="1">
          <mxGeometry relative="1" as="geometry">
            <Array as="points">
              <mxPoint x="1290" y="960" />
              <mxPoint x="1290" y="1330" />
              <mxPoint x="1055" y="1330" />
            </Array>
            <mxPoint x="1120" y="960" as="sourcePoint" />
          </mxGeometry>
        </mxCell>
        <mxCell id="KRCCK3rTStJYhaIaurz0-727" style="edgeStyle=orthogonalEdgeStyle;rounded=0;orthogonalLoop=1;jettySize=auto;html=1;exitX=1;exitY=0.5;exitDx=0;exitDy=0;entryX=0;entryY=0.5;entryDx=0;entryDy=0;endArrow=none;endFill=0;" parent="WIyWlLk6GJQsqaUBKTNV-1" edge="1">
          <mxGeometry relative="1" as="geometry">
            <Array as="points">
              <mxPoint x="1140" y="1130" />
              <mxPoint x="1140" y="1310" />
              <mxPoint x="880" y="1310" />
              <mxPoint x="880" y="960" />
            </Array>
            <mxPoint x="1000" y="960" as="targetPoint" />
          </mxGeometry>
        </mxCell>
        <mxCell id="KRCCK3rTStJYhaIaurz0-728" style="edgeStyle=orthogonalEdgeStyle;rounded=0;orthogonalLoop=1;jettySize=auto;html=1;exitX=0.5;exitY=1;exitDx=0;exitDy=0;entryX=0;entryY=0.5;entryDx=0;entryDy=0;endArrow=none;endFill=0;" parent="WIyWlLk6GJQsqaUBKTNV-1" edge="1">
          <mxGeometry relative="1" as="geometry">
            <Array as="points">
              <mxPoint x="1058" y="1310" />
              <mxPoint x="880" y="1310" />
              <mxPoint x="880" y="960" />
            </Array>
            <mxPoint x="1000" y="960" as="targetPoint" />
          </mxGeometry>
        </mxCell>
        <mxCell id="KRCCK3rTStJYhaIaurz0-729" style="edgeStyle=orthogonalEdgeStyle;rounded=0;orthogonalLoop=1;jettySize=auto;html=1;exitX=1;exitY=0.5;exitDx=0;exitDy=0;endArrow=none;endFill=0;" parent="WIyWlLk6GJQsqaUBKTNV-1" edge="1">
          <mxGeometry relative="1" as="geometry">
            <Array as="points">
              <mxPoint x="1210" y="1390" />
              <mxPoint x="1210" y="1630" />
              <mxPoint x="1048" y="1630" />
            </Array>
            <mxPoint x="1117.5" y="1390" as="sourcePoint" />
          </mxGeometry>
        </mxCell>
        <mxCell id="KRCCK3rTStJYhaIaurz0-803" style="edgeStyle=orthogonalEdgeStyle;rounded=0;orthogonalLoop=1;jettySize=auto;html=1;exitX=1;exitY=0.5;exitDx=0;exitDy=0;entryX=0;entryY=0.5;entryDx=0;entryDy=0;endArrow=none;endFill=0;" parent="WIyWlLk6GJQsqaUBKTNV-1" edge="1">
          <mxGeometry relative="1" as="geometry">
            <Array as="points">
              <mxPoint x="420" y="4635" />
              <mxPoint x="420" y="5120" />
              <mxPoint x="40" y="5120" />
              <mxPoint x="40" y="4565" />
            </Array>
            <mxPoint x="210" y="4565" as="targetPoint" />
          </mxGeometry>
        </mxCell>
        <mxCell id="KRCCK3rTStJYhaIaurz0-827" style="edgeStyle=orthogonalEdgeStyle;rounded=0;orthogonalLoop=1;jettySize=auto;html=1;exitX=1;exitY=0.5;exitDx=0;exitDy=0;" parent="WIyWlLk6GJQsqaUBKTNV-1" edge="1">
          <mxGeometry relative="1" as="geometry">
            <Array as="points">
              <mxPoint x="380" y="2590" />
              <mxPoint x="380" y="3090" />
              <mxPoint x="270" y="3090" />
            </Array>
            <mxPoint x="335" y="2590" as="sourcePoint" />
          </mxGeometry>
        </mxCell>
        <mxCell id="KRCCK3rTStJYhaIaurz0-843" style="edgeStyle=orthogonalEdgeStyle;rounded=0;orthogonalLoop=1;jettySize=auto;html=1;exitX=1;exitY=0.5;exitDx=0;exitDy=0;endArrow=none;endFill=0;" parent="WIyWlLk6GJQsqaUBKTNV-1" edge="1">
          <mxGeometry relative="1" as="geometry">
            <Array as="points">
              <mxPoint x="1060" y="2910" />
              <mxPoint x="1060" y="3050" />
              <mxPoint x="980" y="3050" />
            </Array>
            <mxPoint x="1040" y="2910" as="sourcePoint" />
          </mxGeometry>
        </mxCell>
        <mxCell id="KRCCK3rTStJYhaIaurz0-844" style="edgeStyle=orthogonalEdgeStyle;rounded=0;orthogonalLoop=1;jettySize=auto;html=1;exitX=1;exitY=0.5;exitDx=0;exitDy=0;endArrow=none;endFill=0;" parent="WIyWlLk6GJQsqaUBKTNV-1" edge="1">
          <mxGeometry relative="1" as="geometry">
            <Array as="points">
              <mxPoint x="1200" y="3450" />
              <mxPoint x="1200" y="3820" />
              <mxPoint x="965" y="3820" />
            </Array>
            <mxPoint x="1030" y="3450" as="sourcePoint" />
          </mxGeometry>
        </mxCell>
        <mxCell id="KRCCK3rTStJYhaIaurz0-845" style="edgeStyle=orthogonalEdgeStyle;rounded=0;orthogonalLoop=1;jettySize=auto;html=1;exitX=1;exitY=0.5;exitDx=0;exitDy=0;entryX=0;entryY=0.5;entryDx=0;entryDy=0;endArrow=none;endFill=0;" parent="WIyWlLk6GJQsqaUBKTNV-1" edge="1">
          <mxGeometry relative="1" as="geometry">
            <Array as="points">
              <mxPoint x="1050" y="3620" />
              <mxPoint x="1050" y="3800" />
              <mxPoint x="790" y="3800" />
              <mxPoint x="790" y="3450" />
            </Array>
            <mxPoint x="910" y="3450" as="targetPoint" />
          </mxGeometry>
        </mxCell>
        <mxCell id="KRCCK3rTStJYhaIaurz0-846" style="edgeStyle=orthogonalEdgeStyle;rounded=0;orthogonalLoop=1;jettySize=auto;html=1;exitX=0.5;exitY=1;exitDx=0;exitDy=0;entryX=0;entryY=0.5;entryDx=0;entryDy=0;endArrow=none;endFill=0;" parent="WIyWlLk6GJQsqaUBKTNV-1" edge="1">
          <mxGeometry relative="1" as="geometry">
            <Array as="points">
              <mxPoint x="968" y="3800" />
              <mxPoint x="790" y="3800" />
              <mxPoint x="790" y="3450" />
            </Array>
            <mxPoint x="910" y="3450" as="targetPoint" />
          </mxGeometry>
        </mxCell>
        <mxCell id="KRCCK3rTStJYhaIaurz0-847" style="edgeStyle=orthogonalEdgeStyle;rounded=0;orthogonalLoop=1;jettySize=auto;html=1;exitX=1;exitY=0.5;exitDx=0;exitDy=0;endArrow=none;endFill=0;" parent="WIyWlLk6GJQsqaUBKTNV-1" edge="1">
          <mxGeometry relative="1" as="geometry">
            <Array as="points">
              <mxPoint x="1120" y="3880" />
              <mxPoint x="1120" y="4120" />
              <mxPoint x="958" y="4120" />
            </Array>
            <mxPoint x="1027.5" y="3880" as="sourcePoint" />
          </mxGeometry>
        </mxCell>
        <mxCell id="i5UNZcJOqayFlJNNMky4-2" style="edgeStyle=orthogonalEdgeStyle;rounded=0;orthogonalLoop=1;jettySize=auto;html=1;" parent="WIyWlLk6GJQsqaUBKTNV-1" source="i5UNZcJOqayFlJNNMky4-0" edge="1">
          <mxGeometry relative="1" as="geometry">
            <mxPoint x="410" y="140" as="targetPoint" />
          </mxGeometry>
        </mxCell>
        <mxCell id="i5UNZcJOqayFlJNNMky4-0" value="Начало" style="ellipse;whiteSpace=wrap;html=1;" parent="WIyWlLk6GJQsqaUBKTNV-1" vertex="1">
          <mxGeometry x="350" y="60" width="120" height="50" as="geometry" />
        </mxCell>
        <mxCell id="i5UNZcJOqayFlJNNMky4-6" style="edgeStyle=orthogonalEdgeStyle;rounded=0;orthogonalLoop=1;jettySize=auto;html=1;exitX=0.5;exitY=1;exitDx=0;exitDy=0;" parent="WIyWlLk6GJQsqaUBKTNV-1" source="i5UNZcJOqayFlJNNMky4-3" edge="1">
          <mxGeometry relative="1" as="geometry">
            <mxPoint x="410" y="230" as="targetPoint" />
          </mxGeometry>
        </mxCell>
        <mxCell id="i5UNZcJOqayFlJNNMky4-3" value="i:=1" style="rounded=0;whiteSpace=wrap;html=1;" parent="WIyWlLk6GJQsqaUBKTNV-1" vertex="1">
          <mxGeometry x="350" y="140" width="120" height="60" as="geometry" />
        </mxCell>
        <mxCell id="i5UNZcJOqayFlJNNMky4-75" value="" style="edgeStyle=orthogonalEdgeStyle;rounded=0;orthogonalLoop=1;jettySize=auto;html=1;" parent="WIyWlLk6GJQsqaUBKTNV-1" source="i5UNZcJOqayFlJNNMky4-5" target="i5UNZcJOqayFlJNNMky4-53" edge="1">
          <mxGeometry relative="1" as="geometry" />
        </mxCell>
        <mxCell id="i5UNZcJOqayFlJNNMky4-5" value="Вывод (&#39;Исходный массив&#39;)" style="shape=parallelogram;perimeter=parallelogramPerimeter;whiteSpace=wrap;html=1;fixedSize=1;" parent="WIyWlLk6GJQsqaUBKTNV-1" vertex="1">
          <mxGeometry x="350" y="230" width="120" height="60" as="geometry" />
        </mxCell>
        <mxCell id="i5UNZcJOqayFlJNNMky4-78" value="" style="edgeStyle=orthogonalEdgeStyle;rounded=0;orthogonalLoop=1;jettySize=auto;html=1;" parent="WIyWlLk6GJQsqaUBKTNV-1" source="i5UNZcJOqayFlJNNMky4-53" target="i5UNZcJOqayFlJNNMky4-76" edge="1">
          <mxGeometry relative="1" as="geometry" />
        </mxCell>
        <mxCell id="i5UNZcJOqayFlJNNMky4-53" value="Цикл 1&lt;br&gt;i&amp;gt;=N" style="strokeWidth=1;html=1;shape=mxgraph.flowchart.loop_limit;whiteSpace=wrap;" parent="WIyWlLk6GJQsqaUBKTNV-1" vertex="1">
          <mxGeometry x="350" y="320" width="120" height="70" as="geometry" />
        </mxCell>
        <mxCell id="i5UNZcJOqayFlJNNMky4-80" value="" style="edgeStyle=orthogonalEdgeStyle;rounded=0;orthogonalLoop=1;jettySize=auto;html=1;" parent="WIyWlLk6GJQsqaUBKTNV-1" source="i5UNZcJOqayFlJNNMky4-76" target="i5UNZcJOqayFlJNNMky4-79" edge="1">
          <mxGeometry relative="1" as="geometry" />
        </mxCell>
        <mxCell id="i5UNZcJOqayFlJNNMky4-76" value="Ввод a[i]" style="shape=parallelogram;perimeter=parallelogramPerimeter;whiteSpace=wrap;html=1;fixedSize=1;" parent="WIyWlLk6GJQsqaUBKTNV-1" vertex="1">
          <mxGeometry x="350" y="420" width="120" height="60" as="geometry" />
        </mxCell>
        <mxCell id="i5UNZcJOqayFlJNNMky4-82" value="" style="edgeStyle=orthogonalEdgeStyle;rounded=0;orthogonalLoop=1;jettySize=auto;html=1;" parent="WIyWlLk6GJQsqaUBKTNV-1" source="i5UNZcJOqayFlJNNMky4-79" target="i5UNZcJOqayFlJNNMky4-81" edge="1">
          <mxGeometry relative="1" as="geometry" />
        </mxCell>
        <mxCell id="i5UNZcJOqayFlJNNMky4-79" value="Вывод (&#39;изменённый массив&#39;)" style="shape=parallelogram;perimeter=parallelogramPerimeter;whiteSpace=wrap;html=1;fixedSize=1;" parent="WIyWlLk6GJQsqaUBKTNV-1" vertex="1">
          <mxGeometry x="350" y="510" width="120" height="60" as="geometry" />
        </mxCell>
        <mxCell id="i5UNZcJOqayFlJNNMky4-84" value="" style="edgeStyle=orthogonalEdgeStyle;rounded=0;orthogonalLoop=1;jettySize=auto;html=1;" parent="WIyWlLk6GJQsqaUBKTNV-1" source="i5UNZcJOqayFlJNNMky4-81" target="i5UNZcJOqayFlJNNMky4-83" edge="1">
          <mxGeometry relative="1" as="geometry" />
        </mxCell>
        <mxCell id="i5UNZcJOqayFlJNNMky4-81" value="Цикл 1" style="strokeWidth=1;html=1;shape=mxgraph.flowchart.loop_limit;whiteSpace=wrap;direction=west;" parent="WIyWlLk6GJQsqaUBKTNV-1" vertex="1">
          <mxGeometry x="350" y="600" width="120" height="70" as="geometry" />
        </mxCell>
        <mxCell id="i5UNZcJOqayFlJNNMky4-87" value="" style="edgeStyle=orthogonalEdgeStyle;rounded=0;orthogonalLoop=1;jettySize=auto;html=1;" parent="WIyWlLk6GJQsqaUBKTNV-1" source="i5UNZcJOqayFlJNNMky4-83" target="i5UNZcJOqayFlJNNMky4-86" edge="1">
          <mxGeometry relative="1" as="geometry" />
        </mxCell>
        <mxCell id="i5UNZcJOqayFlJNNMky4-83" value="Цикл 2&lt;br&gt;i&amp;gt;=N" style="strokeWidth=1;html=1;shape=mxgraph.flowchart.loop_limit;whiteSpace=wrap;" parent="WIyWlLk6GJQsqaUBKTNV-1" vertex="1">
          <mxGeometry x="350" y="700" width="120" height="70" as="geometry" />
        </mxCell>
        <mxCell id="i5UNZcJOqayFlJNNMky4-89" value="" style="edgeStyle=orthogonalEdgeStyle;rounded=0;orthogonalLoop=1;jettySize=auto;html=1;" parent="WIyWlLk6GJQsqaUBKTNV-1" source="i5UNZcJOqayFlJNNMky4-86" target="i5UNZcJOqayFlJNNMky4-88" edge="1">
          <mxGeometry relative="1" as="geometry" />
        </mxCell>
        <mxCell id="i5UNZcJOqayFlJNNMky4-91" value="" style="edgeStyle=orthogonalEdgeStyle;rounded=0;orthogonalLoop=1;jettySize=auto;html=1;" parent="WIyWlLk6GJQsqaUBKTNV-1" source="i5UNZcJOqayFlJNNMky4-86" target="i5UNZcJOqayFlJNNMky4-90" edge="1">
          <mxGeometry relative="1" as="geometry" />
        </mxCell>
        <mxCell id="i5UNZcJOqayFlJNNMky4-86" value="&lt;span style=&quot;font-family: monospace; font-size: 13.2px; text-align: left;&quot; class=&quot;lit&quot;&gt;&lt;span style=&quot;background-color: rgb(26, 26, 26);&quot;&gt;&lt;font color=&quot;#ffffff&quot;&gt;a[i]&amp;gt;0&lt;/font&gt;&lt;/span&gt;&lt;br&gt;&lt;/span&gt;" style="rhombus;whiteSpace=wrap;html=1;" parent="WIyWlLk6GJQsqaUBKTNV-1" vertex="1">
          <mxGeometry x="320" y="810" width="180" height="80" as="geometry" />
        </mxCell>
        <mxCell id="i5UNZcJOqayFlJNNMky4-94" style="edgeStyle=orthogonalEdgeStyle;rounded=0;orthogonalLoop=1;jettySize=auto;html=1;entryX=0;entryY=0.5;entryDx=0;entryDy=0;" parent="WIyWlLk6GJQsqaUBKTNV-1" source="i5UNZcJOqayFlJNNMky4-88" target="i5UNZcJOqayFlJNNMky4-92" edge="1">
          <mxGeometry relative="1" as="geometry">
            <Array as="points">
              <mxPoint x="410" y="1050" />
            </Array>
          </mxGeometry>
        </mxCell>
        <mxCell id="i5UNZcJOqayFlJNNMky4-88" value="a[i]:=0" style="whiteSpace=wrap;html=1;" parent="WIyWlLk6GJQsqaUBKTNV-1" vertex="1">
          <mxGeometry x="350" y="925" width="120" height="60" as="geometry" />
        </mxCell>
        <mxCell id="i5UNZcJOqayFlJNNMky4-93" value="" style="edgeStyle=orthogonalEdgeStyle;rounded=0;orthogonalLoop=1;jettySize=auto;html=1;" parent="WIyWlLk6GJQsqaUBKTNV-1" source="i5UNZcJOqayFlJNNMky4-90" target="i5UNZcJOqayFlJNNMky4-92" edge="1">
          <mxGeometry relative="1" as="geometry" />
        </mxCell>
        <mxCell id="i5UNZcJOqayFlJNNMky4-90" value="a[i]:=sqr(a[i])" style="whiteSpace=wrap;html=1;" parent="WIyWlLk6GJQsqaUBKTNV-1" vertex="1">
          <mxGeometry x="550" y="820" width="120" height="60" as="geometry" />
        </mxCell>
        <mxCell id="i5UNZcJOqayFlJNNMky4-96" value="" style="edgeStyle=orthogonalEdgeStyle;rounded=0;orthogonalLoop=1;jettySize=auto;html=1;" parent="WIyWlLk6GJQsqaUBKTNV-1" source="i5UNZcJOqayFlJNNMky4-92" target="i5UNZcJOqayFlJNNMky4-95" edge="1">
          <mxGeometry relative="1" as="geometry" />
        </mxCell>
        <mxCell id="i5UNZcJOqayFlJNNMky4-92" value="Вывод a[i]" style="shape=parallelogram;perimeter=parallelogramPerimeter;whiteSpace=wrap;html=1;fixedSize=1;" parent="WIyWlLk6GJQsqaUBKTNV-1" vertex="1">
          <mxGeometry x="550" y="1020" width="120" height="60" as="geometry" />
        </mxCell>
        <mxCell id="i5UNZcJOqayFlJNNMky4-98" style="edgeStyle=orthogonalEdgeStyle;rounded=0;orthogonalLoop=1;jettySize=auto;html=1;exitX=0.5;exitY=0;exitDx=0;exitDy=0;exitPerimeter=0;entryX=1;entryY=0.5;entryDx=0;entryDy=0;" parent="WIyWlLk6GJQsqaUBKTNV-1" source="i5UNZcJOqayFlJNNMky4-95" target="i5UNZcJOqayFlJNNMky4-97" edge="1">
          <mxGeometry relative="1" as="geometry">
            <Array as="points">
              <mxPoint x="610" y="1205" />
            </Array>
          </mxGeometry>
        </mxCell>
        <mxCell id="i5UNZcJOqayFlJNNMky4-95" value="Цикл 2" style="strokeWidth=1;html=1;shape=mxgraph.flowchart.loop_limit;whiteSpace=wrap;direction=west;" parent="WIyWlLk6GJQsqaUBKTNV-1" vertex="1">
          <mxGeometry x="550" y="1099" width="120" height="70" as="geometry" />
        </mxCell>
        <mxCell id="i5UNZcJOqayFlJNNMky4-97" value="Конец" style="ellipse;whiteSpace=wrap;html=1;" parent="WIyWlLk6GJQsqaUBKTNV-1" vertex="1">
          <mxGeometry x="350" y="1180" width="120" height="50" as="geometry" />
        </mxCell>
        <mxCell id="1b9pPsAbHysI29ODQ3LB-0" value="Ввод элемент масиива под индексом i" style="text;html=1;align=center;verticalAlign=middle;whiteSpace=wrap;rounded=0;" parent="WIyWlLk6GJQsqaUBKTNV-1" vertex="1">
          <mxGeometry x="500" y="435" width="170" height="30" as="geometry" />
        </mxCell>
        <mxCell id="1b9pPsAbHysI29ODQ3LB-1" value="возводим элемент массива в квадрат,&lt;br&gt;sqr - возведение в квадрат" style="text;html=1;strokeColor=none;fillColor=none;align=center;verticalAlign=middle;whiteSpace=wrap;rounded=0;" parent="WIyWlLk6GJQsqaUBKTNV-1" vertex="1">
          <mxGeometry x="690" y="835" width="130" height="30" as="geometry" />
        </mxCell>
        <mxCell id="57zQru1Tj9Q9DGNdeD8I-0" value="" style="endArrow=none;dashed=1;html=1;rounded=0;entryX=0;entryY=0.5;entryDx=0;entryDy=0;exitX=1;exitY=0.5;exitDx=0;exitDy=0;" parent="WIyWlLk6GJQsqaUBKTNV-1" source="i5UNZcJOqayFlJNNMky4-90" target="1b9pPsAbHysI29ODQ3LB-1" edge="1">
          <mxGeometry width="50" height="50" relative="1" as="geometry">
            <mxPoint x="390" y="1050" as="sourcePoint" />
            <mxPoint x="440" y="1000" as="targetPoint" />
          </mxGeometry>
        </mxCell>
        <mxCell id="57zQru1Tj9Q9DGNdeD8I-1" value="" style="endArrow=none;dashed=1;html=1;rounded=0;entryX=0;entryY=0.5;entryDx=0;entryDy=0;exitX=1;exitY=0.5;exitDx=0;exitDy=0;" parent="WIyWlLk6GJQsqaUBKTNV-1" source="i5UNZcJOqayFlJNNMky4-76" target="1b9pPsAbHysI29ODQ3LB-0" edge="1">
          <mxGeometry width="50" height="50" relative="1" as="geometry">
            <mxPoint x="390" y="450" as="sourcePoint" />
            <mxPoint x="440" y="400" as="targetPoint" />
          </mxGeometry>
        </mxCell>
      </root>
    </mxGraphModel>
  </diagram>
</mxfile>
